<?xml version="1.0" standalone="no"?>
<!DOCTYPE svg PUBLIC "-//W3C//DTD SVG 20010904//EN"
 "http://www.w3.org/TR/2001/REC-SVG-20010904/DTD/svg10.dtd">
<svg version="1.0" xmlns="http://www.w3.org/2000/svg"
 width="115.000000pt" height="115.000000pt" viewBox="0 0 115.000000 115.000000"
 preserveAspectRatio="xMidYMid meet">
<metadata>
Created by potrace 1.14, written by Peter Selinger 2001-2017
</metadata>
<g transform="translate(0.000000,115.000000) scale(0.100000,-0.100000)"
fill="#000000" stroke="none">
<path d="M190 710 l0 -210 24 0 c22 0 24 4 24 56 0 53 2 59 41 98 l42 41 57
-65 c116 -131 117 -132 142 -128 21 3 16 12 -68 112 -51 59 -92 111 -92 115 0
4 38 47 84 96 72 77 81 91 63 93 -15 3 -51 -27 -141 -117 -67 -66 -123 -123
-126 -125 -3 -2 -5 52 -4 120 1 124 1 124 -22 124 l-24 0 0 -210z"/>
<path d="M600 430 l0 -210 23 0 24 0 -1 155 c-1 85 2 155 5 155 4 0 41 -58 83
-130 42 -72 81 -130 86 -130 5 0 43 59 85 130 43 72 80 132 84 134 3 2 6 -67
5 -155 0 -158 0 -159 22 -159 l23 0 0 210 c1 200 0 210 -18 210 -20 0 -25 -8
-142 -207 -29 -51 -56 -93 -59 -93 -5 0 -16 19 -130 213 -36 62 -56 87 -70 87
-19 0 -20 -8 -20 -210z"/>
</g>
</svg>
