<svg width="446" height="446" viewBox="0 0 446 446" fill="none" xmlns="http://www.w3.org/2000/svg">
<g clip-path="url(#clip0)">
<path d="M254.617 156.506C254.617 146.369 253.075 136.373 250.036 126.796C248.945 123.357 245.27 121.454 241.833 122.546C238.394 123.638 236.491 127.31 237.583 130.749C240.216 139.046 241.552 147.711 241.552 156.506C241.552 203.4 203.401 241.551 156.507 241.551C109.612 241.551 71.4619 203.4 71.4619 156.506C71.4619 109.611 109.612 71.4611 156.507 71.4611C183.489 71.4611 208.279 83.8454 224.519 105.439C226.687 108.322 230.783 108.902 233.667 106.733C236.551 104.563 237.131 100.468 234.961 97.5843C216.229 72.6788 187.633 58.3947 156.507 58.3947C102.408 58.3947 58.3955 102.407 58.3955 156.506C58.3955 210.605 102.408 254.617 156.507 254.617C210.606 254.617 254.617 210.605 254.617 156.506Z" fill="#F9F1E7"/>
<path d="M124.471 176.714C122.543 173.665 118.507 172.755 115.457 174.683C112.408 176.611 111.499 180.647 113.427 183.696C122.829 198.565 138.933 207.442 156.506 207.442C184.593 207.442 207.443 184.593 207.443 156.505C207.443 128.417 184.593 105.568 156.506 105.568C131.005 105.568 109.292 124.61 105.999 149.862C105.532 153.44 108.055 156.718 111.632 157.185C115.21 157.656 118.489 155.13 118.956 151.552C121.403 132.786 137.546 118.634 156.506 118.634C177.388 118.634 194.377 135.622 194.377 156.505C194.377 177.388 177.389 194.376 156.506 194.376C143.44 194.377 131.464 187.774 124.471 176.714Z" fill="#F9F1E7"/>
<path d="M152.513 180.289C154.939 181.689 157.999 181.731 160.501 180.289L175.105 171.856C177.569 170.434 179.099 167.782 179.099 164.937V148.074C179.099 145.226 177.567 142.575 175.105 141.155L160.501 132.722C158.036 131.299 154.973 131.299 152.511 132.722L137.908 141.154C135.443 142.575 133.911 145.227 133.911 148.074V164.937C133.911 167.781 135.441 170.432 137.906 171.856L152.513 180.289ZM146.979 151.006L156.507 145.505L166.034 151.005V162.007L156.507 167.507L146.979 162.006V151.006Z" fill="#F9F1E7"/>
<path d="M137.12 306.774C137.756 310.388 140.88 313.011 144.549 313.011H168.462C172.134 313.011 175.259 310.386 175.891 306.772L180.131 282.631C186.587 281.429 192.946 279.73 199.12 277.559L214.852 296.335C217.209 299.148 221.226 299.857 224.405 298.022L245.114 286.065C248.291 284.231 249.686 280.397 248.429 276.948L240.022 253.9C244.99 249.636 249.638 244.988 253.901 240.021L276.95 248.429C280.399 249.686 284.232 248.29 286.066 245.113L298.022 224.405C299.857 221.227 299.148 217.209 296.335 214.85L277.56 199.12C279.731 192.947 281.429 186.588 282.632 180.131L306.77 175.892C310.387 175.258 313.012 172.133 313.012 168.462V144.549C313.012 140.88 310.389 137.756 306.773 137.12L282.632 132.88C281.43 126.424 279.73 120.064 277.56 113.891L296.332 98.1627C299.147 95.8064 299.858 91.788 298.022 88.6068L286.065 67.8974C284.23 64.7205 280.396 63.325 276.948 64.5829L253.9 72.9907C249.637 68.0246 244.989 63.3764 240.021 59.1116L248.428 36.0633C249.685 32.6155 248.291 28.7818 245.113 26.9455L224.405 14.9898C221.228 13.1553 217.209 13.8643 214.85 16.678L199.119 35.4518C192.946 33.281 186.586 31.5824 180.13 30.3803L175.891 6.24139C175.259 2.62548 172.133 0 168.462 0H144.549C140.88 0 137.756 2.62286 137.12 6.23964L132.88 30.3803C126.424 31.5824 120.065 33.281 113.892 35.4518L98.1601 16.6771C95.802 13.8643 91.7837 13.1544 88.6068 14.9898L67.8974 26.9464C64.7197 28.7818 63.3259 32.6164 64.5829 36.0642L72.9907 59.1116C68.0237 63.3756 63.3756 68.0237 59.1116 72.9907L36.0633 64.5838C32.6155 63.3268 28.7783 64.7205 26.9455 67.8991L14.988 88.6094C13.1535 91.7889 13.8643 95.8073 16.6771 98.1618L35.4509 113.893C33.2801 120.066 31.5815 126.426 30.3794 132.881L6.23529 137.121C2.62286 137.757 0 140.881 0 144.549V168.462C0 172.131 2.62286 175.255 6.23965 175.891L30.3803 180.131C31.5824 186.587 33.2819 192.946 35.4518 199.119L16.6771 214.851C13.8643 217.209 13.1544 221.226 14.9898 224.404L26.9438 245.109C28.7792 248.293 32.6155 249.688 36.0642 248.428L59.1116 240.021C63.3764 244.989 68.0237 249.637 72.9907 253.9L64.5829 276.949C63.3268 280.397 64.7214 284.23 67.8991 286.065L88.6094 298.022C91.788 299.857 95.8073 299.147 98.1618 296.334L113.893 277.559C120.065 279.73 126.424 281.428 132.881 282.631L137.12 306.774ZM106.379 266.182L91.1243 284.388L78.4481 277.069L86.5998 254.721C87.7061 251.69 86.7601 248.295 84.2478 246.27C77.8166 241.087 71.9271 235.196 66.7423 228.764C64.7162 226.25 61.318 225.304 58.291 226.411L35.9431 234.563L28.6241 221.887L46.8256 206.636C49.3013 204.565 50.182 201.149 49.0156 198.132C46.0382 190.448 43.8883 182.4 42.627 174.215C42.1357 171.017 39.6653 168.493 36.4823 167.935L13.0664 163.825V149.187L36.4805 145.075C39.6653 144.517 42.1348 141.993 42.6261 138.797C43.8883 130.611 46.0382 122.563 49.0156 114.877C50.1811 111.868 49.3039 108.454 46.83 106.378L28.6241 91.1242L35.9422 78.4481L58.2901 86.5998C61.3206 87.7061 64.7162 86.7609 66.7415 84.2478C71.9262 77.8165 77.8157 71.9262 84.2505 66.7397C86.7583 64.7162 87.7035 61.3233 86.6007 58.291L78.4481 35.9431L91.1243 28.625L106.381 46.8335C108.454 49.3039 111.869 50.1828 114.878 49.0156C122.563 46.0382 130.611 43.8883 138.795 42.627C141.99 42.1357 144.514 39.6687 145.075 36.4823L149.187 13.0673H163.824L167.936 36.4814C168.494 39.6653 171.017 42.1357 174.213 42.627C182.399 43.8892 190.447 46.039 198.131 49.0156C201.143 50.1837 204.556 49.3056 206.632 46.8309L221.887 28.6259L234.563 35.9448L226.411 58.2919C225.305 61.3224 226.251 64.7179 228.763 66.7423C235.196 71.9288 241.086 77.8183 246.271 84.2513C248.295 86.7592 251.689 87.7035 254.72 86.6015L277.068 78.449L284.387 91.1251L266.178 106.381C263.707 108.455 262.83 111.869 263.996 114.88C266.974 122.563 269.124 130.611 270.385 138.797C270.876 141.994 273.347 144.519 276.53 145.077L299.945 149.189V163.826L276.53 167.937C273.347 168.496 270.876 171.019 270.385 174.214C269.123 182.404 266.973 190.452 263.996 198.133C262.829 201.143 263.706 204.558 266.181 206.635L284.387 221.888L277.068 234.565L254.72 226.413C251.689 225.305 248.294 226.252 246.269 228.765C241.086 235.195 235.195 241.086 228.763 246.27C226.25 248.296 225.305 251.692 226.41 254.722L234.562 277.07L221.886 284.389L206.632 266.184C204.559 263.708 201.142 262.83 198.131 263.997C190.448 266.974 182.4 269.124 174.213 270.386C171.016 270.877 168.492 273.347 167.934 276.53L163.822 299.945H149.185L145.074 276.531C144.515 273.347 141.991 270.877 138.796 270.386C130.607 269.124 122.559 266.974 114.875 263.996C111.87 262.831 108.454 263.708 106.379 266.182Z" fill="#F9F1E7"/>
<path d="M377.828 293.832C374.924 291.692 370.833 292.313 368.694 295.219C366.554 298.124 367.175 302.214 370.081 304.353C382.083 313.191 389.248 327.354 389.248 342.236C389.248 368.158 368.159 389.247 342.237 389.247C316.315 389.247 295.226 368.158 295.226 342.236C295.226 315.605 317.474 294.094 344.346 295.271C347.975 295.435 351.002 292.635 351.16 289.031C351.318 285.426 348.525 282.376 344.919 282.217C310.402 280.703 282.159 308.397 282.159 342.235C282.159 375.362 309.11 402.313 342.237 402.313C375.364 402.313 402.315 375.362 402.315 342.235C402.314 323.218 393.16 305.123 377.828 293.832Z" fill="#F9F1E7"/>
<path d="M312.886 342.236C312.886 358.42 326.053 371.586 342.237 371.586C358.421 371.586 371.587 358.419 371.587 342.236C371.587 326.053 358.42 312.886 342.237 312.886C326.054 312.886 312.886 326.053 312.886 342.236ZM358.52 342.236C358.52 351.215 351.215 358.52 342.237 358.52C333.259 358.52 325.953 351.215 325.953 342.236C325.953 333.258 333.258 325.952 342.237 325.952C351.216 325.952 358.52 333.258 358.52 342.236Z" fill="#F9F1E7"/>
<path d="M342.236 347.858C345.341 347.858 347.858 345.341 347.858 342.236C347.858 339.131 345.341 336.614 342.236 336.614C339.131 336.614 336.614 339.131 336.614 342.236C336.614 345.341 339.131 347.858 342.236 347.858Z" fill="#F9F1E7"/>
<path d="M440.166 323.545L421.854 319.284C420.143 313.335 417.765 307.604 414.76 302.176L424.7 286.207C426.564 283.214 426.124 279.381 423.63 276.887L407.587 260.844C405.093 258.349 401.259 257.909 398.267 259.773L382.297 269.713C376.868 266.707 371.136 264.331 365.19 262.619L360.928 244.309C360.129 240.872 357.108 238.472 353.58 238.472H330.893C327.365 238.472 324.343 240.872 323.545 244.306L319.284 262.618C313.336 264.33 307.604 266.706 302.176 269.712L286.207 259.772C283.213 257.907 279.381 258.348 276.887 260.842L260.844 276.885C258.352 279.377 257.911 283.208 259.773 286.206L269.713 302.175C266.707 307.604 264.331 313.336 262.619 319.283L244.309 323.544C240.872 324.343 238.472 327.364 238.472 330.892V353.58C238.472 357.105 240.87 360.127 244.307 360.928L262.619 365.19C264.33 371.136 266.706 376.866 269.713 382.297L259.771 398.27C257.91 401.264 258.351 405.094 260.843 407.587L276.886 423.629C279.38 426.124 283.213 426.564 286.207 424.7L302.176 414.76C307.604 417.765 313.335 420.142 319.284 421.854L323.544 440.165C324.343 443.601 327.364 446.001 330.893 446.001H353.58C357.108 446.001 360.13 443.601 360.928 440.167L365.19 421.855C371.138 420.143 376.868 417.767 382.297 414.761L398.263 424.698C401.259 426.565 405.092 426.126 407.587 423.63L423.63 407.587C426.124 405.093 426.564 401.261 424.701 398.267L414.761 382.297C417.766 376.87 420.143 371.139 421.855 365.19L440.171 360.927C443.604 360.127 446.001 357.106 446.001 353.58V330.892C446 327.364 443.6 324.343 440.166 323.545ZM432.934 349.195L415.654 353.216C412.865 353.864 410.713 355.998 410.04 358.778C408.351 365.721 405.604 372.347 401.872 378.474C400.384 380.917 400.397 383.943 401.909 386.376L411.29 401.448L401.449 411.29L386.378 401.909C383.949 400.397 380.921 400.383 378.475 401.872C372.347 405.604 365.721 408.351 358.784 410.038C355.999 410.712 353.865 412.865 353.217 415.652L349.195 432.934H335.277L331.254 415.647C330.604 412.862 328.472 410.713 325.693 410.039C318.752 408.351 312.125 405.604 305.998 401.871C303.55 400.381 300.521 400.397 298.095 401.908L283.024 411.289L273.182 401.447L282.563 386.376C284.077 383.945 284.09 380.915 282.599 378.473C278.868 372.345 276.12 365.718 274.432 358.776C273.755 355.993 271.604 353.863 268.819 353.215L251.538 349.194V335.275L268.818 331.254C271.604 330.606 273.755 328.476 274.433 325.692C276.12 318.75 278.868 312.123 282.597 306.001C284.09 303.554 284.077 300.524 282.563 298.094L273.181 283.022L283.023 273.18L298.095 282.563C300.524 284.074 303.551 284.087 305.997 282.599C312.123 278.867 318.749 276.119 325.692 274.431C328.472 273.755 330.602 271.606 331.253 268.818L335.275 251.537H349.194L353.215 268.816C353.863 271.602 355.993 273.753 358.777 274.431C365.719 276.118 372.346 278.867 378.473 282.599C380.915 284.086 383.942 284.073 386.375 282.562L401.447 273.18L411.289 283.022L401.905 298.098C400.397 300.527 400.383 303.553 401.871 305.996C405.602 312.122 408.35 318.748 410.037 325.686C410.711 328.472 412.864 330.605 415.651 331.253L432.934 335.278V349.195Z" fill="#F9F1E7"/>
<path d="M176.122 357.135C165.231 357.135 156.37 365.996 156.37 376.888C156.37 387.78 165.231 396.641 176.122 396.641C187.013 396.641 195.875 387.78 195.875 376.888C195.875 365.996 187.013 357.135 176.122 357.135ZM176.122 383.575C172.436 383.575 169.436 380.576 169.436 376.888C169.436 373.201 172.436 370.202 176.122 370.202C179.809 370.202 182.809 373.201 182.809 376.888C182.809 380.576 179.809 383.575 176.122 383.575Z" fill="#F9F1E7"/>
<path d="M225.625 370.355H219.99C219.489 366.969 218.602 363.706 217.378 360.614L222.26 357.795C225.385 355.991 226.456 351.995 224.652 348.87C222.848 345.745 218.852 344.674 215.727 346.479L210.828 349.308C208.73 346.673 206.339 344.282 203.704 342.183L206.532 337.283C208.336 334.159 207.265 330.163 204.141 328.359C201.016 326.554 197.02 327.625 195.216 330.75L192.398 335.632C189.304 334.408 186.041 333.522 182.655 333.019V327.384C182.655 323.776 179.73 320.851 176.122 320.851C172.514 320.851 169.589 323.776 169.589 327.384V333.019C166.203 333.521 162.94 334.408 159.847 335.632L157.028 330.75C155.224 327.624 151.228 326.554 148.103 328.359C144.979 330.163 143.908 334.159 145.712 337.283L148.541 342.183C145.906 344.282 143.514 346.673 141.416 349.308L136.516 346.479C133.391 344.674 129.396 345.746 127.592 348.87C125.788 351.995 126.858 355.991 129.983 357.795L134.865 360.614C133.641 363.707 132.755 366.969 132.253 370.355H126.618C123.01 370.355 120.085 373.28 120.085 376.888C120.085 380.496 123.01 383.422 126.618 383.422H132.253C132.755 386.807 133.641 390.071 134.865 393.163L129.983 395.982C126.858 397.786 125.788 401.782 127.592 404.906C129.401 408.041 133.4 409.097 136.516 407.297L141.416 404.469C143.514 407.104 145.906 409.495 148.541 411.594L145.712 416.493C143.908 419.617 144.979 423.613 148.103 425.417C151.214 427.213 155.216 426.164 157.028 423.026L159.847 418.143C162.94 419.368 166.202 420.254 169.588 420.756V426.391C169.588 429.999 172.513 432.924 176.121 432.924C179.729 432.924 182.654 429.999 182.654 426.391V420.756C186.04 420.254 189.303 419.367 192.397 418.142L195.216 423.025C197.025 426.16 201.024 427.216 204.14 425.416C207.265 423.612 208.335 419.616 206.531 416.492L203.703 411.592C206.338 409.493 208.729 407.102 210.827 404.467L215.726 407.296C218.837 409.092 222.839 408.043 224.651 404.904C226.455 401.78 225.384 397.784 222.26 395.98L217.377 393.161C218.602 390.068 219.488 386.806 219.989 383.42H225.625C229.233 383.42 232.158 380.495 232.158 376.887C232.158 373.278 229.234 370.355 225.625 370.355ZM176.122 408.171C158.874 408.171 144.84 394.138 144.84 376.888C144.84 359.639 158.874 345.606 176.122 345.606C193.371 345.606 207.405 359.639 207.405 376.888C207.405 394.138 193.371 408.171 176.122 408.171Z" fill="#F9F1E7"/>
</g>
<defs>
<clipPath id="clip0">
<rect width="446" height="446" fill="white"/>
</clipPath>
</defs>
</svg>
