<svg width="417" height="446" viewBox="0 0 417 446" fill="none" xmlns="http://www.w3.org/2000/svg">
<g clip-path="url(#clip0)">
<path d="M162.383 289.494C162.383 299.631 163.925 309.627 166.964 319.204C168.055 322.643 171.73 324.546 175.167 323.454C178.606 322.362 180.509 318.69 179.417 315.251C176.784 306.954 175.448 298.289 175.448 289.494C175.448 242.6 213.599 204.449 260.493 204.449C307.388 204.449 345.538 242.6 345.538 289.494C345.538 336.389 307.388 374.539 260.493 374.539C233.511 374.539 208.721 362.155 192.481 340.561C190.313 337.678 186.217 337.098 183.333 339.267C180.449 341.437 179.869 345.532 182.039 348.416C200.771 373.321 229.367 387.605 260.493 387.605C314.592 387.605 358.604 343.593 358.604 289.494C358.604 235.395 314.592 191.383 260.493 191.383C206.394 191.383 162.383 235.395 162.383 289.494Z" fill="#F9F1E7"/>
<path d="M292.529 269.286C294.457 272.335 298.493 273.245 301.543 271.317C304.592 269.389 305.501 265.353 303.573 262.304C294.171 247.435 278.067 238.558 260.494 238.558C232.407 238.558 209.557 261.407 209.557 289.495C209.557 317.582 232.407 340.432 260.494 340.432C285.995 340.432 307.708 321.39 311.001 296.138C311.468 292.56 308.945 289.281 305.368 288.815C301.79 288.344 298.511 290.87 298.044 294.448C295.597 313.214 279.454 327.366 260.494 327.366C239.612 327.366 222.623 310.378 222.623 289.495C222.623 268.612 239.611 251.624 260.494 251.624C273.56 251.623 285.536 258.226 292.529 269.286Z" fill="#F9F1E7"/>
<path d="M264.487 265.711C262.061 264.311 259.001 264.269 256.499 265.711L241.895 274.144C239.431 275.566 237.901 278.218 237.901 281.063V297.926C237.901 300.774 239.433 303.425 241.895 304.845L256.499 313.277C258.964 314.701 262.027 314.701 264.489 313.277L279.092 304.846C281.557 303.425 283.089 300.773 283.089 297.926V281.063C283.089 278.219 281.559 275.568 279.094 274.144L264.487 265.711ZM270.021 294.994L260.493 300.495L250.966 294.995V283.993L260.493 278.493L270.021 283.994V294.994Z" fill="#F9F1E7"/>
<path d="M279.88 139.226C279.244 135.612 276.12 132.989 272.451 132.989H248.538C244.866 132.989 241.741 135.614 241.109 139.228L236.869 163.369C230.413 164.571 224.054 166.27 217.88 168.441L202.148 149.665C199.791 146.852 195.774 146.143 192.595 147.978L171.886 159.935C168.709 161.769 167.314 165.603 168.571 169.052L176.978 192.1C172.01 196.364 167.362 201.012 163.099 205.979L140.05 197.571C136.601 196.314 132.768 197.71 130.934 200.887L118.978 221.595C117.143 224.773 117.852 228.791 120.665 231.15L139.44 246.88C137.269 253.053 135.571 259.412 134.368 265.869L110.23 270.108C106.613 270.742 103.988 273.867 103.988 277.538V301.451C103.988 305.12 106.611 308.244 110.227 308.88L134.368 313.12C135.57 319.576 137.27 325.936 139.44 332.109L120.668 347.837C117.853 350.194 117.142 354.212 118.978 357.393L130.935 378.103C132.77 381.279 136.604 382.675 140.052 381.417L163.1 373.009C167.363 377.975 172.011 382.624 176.979 386.888L168.572 409.937C167.315 413.385 168.709 417.218 171.887 419.054L192.595 431.01C195.772 432.845 199.791 432.136 202.15 429.322L217.881 410.548C224.054 412.719 230.414 414.418 236.87 415.62L241.109 439.759C241.741 443.375 244.867 446 248.538 446H272.451C276.12 446 279.244 443.377 279.88 439.76L284.12 415.62C290.576 414.418 296.935 412.719 303.108 410.548L318.84 429.323C321.198 432.136 325.216 432.846 328.393 431.01L349.103 419.054C352.28 417.218 353.674 413.384 352.417 409.936L344.009 386.888C348.976 382.624 353.624 377.976 357.888 373.009L380.937 381.416C384.385 382.673 388.222 381.279 390.054 378.101L402.012 357.391C403.846 354.211 403.136 350.193 400.323 347.838L381.549 332.107C383.72 325.934 385.418 319.574 386.621 313.119L410.765 308.879C414.377 308.243 417 305.119 417 301.451V277.538C417 273.869 414.377 270.745 410.76 270.109L386.62 265.869C385.418 259.413 383.718 253.054 381.548 246.881L400.323 231.149C403.136 228.791 403.846 224.774 402.01 221.596L390.056 200.891C388.221 197.707 384.385 196.312 380.936 197.572L357.888 205.979C353.624 201.011 348.976 196.363 344.009 192.1L352.417 169.051C353.673 165.603 352.279 161.77 349.101 159.935L328.391 147.978C325.212 146.143 321.193 146.853 318.838 149.666L303.107 168.441C296.935 166.27 290.576 164.572 284.119 163.369L279.88 139.226ZM310.621 179.818L325.876 161.612L338.552 168.931L330.4 191.279C329.294 194.31 330.24 197.705 332.752 199.73C339.183 204.913 345.073 210.804 350.258 217.236C352.284 219.75 355.682 220.696 358.709 219.589L381.057 211.437L388.376 224.113L370.174 239.364C367.699 241.435 366.818 244.851 367.984 247.868C370.962 255.552 373.112 263.6 374.373 271.785C374.864 274.983 377.335 277.507 380.518 278.065L403.934 282.175V296.813L380.519 300.925C377.335 301.483 374.865 304.007 374.374 307.203C373.112 315.389 370.962 323.437 367.984 331.123C366.819 334.132 367.696 337.546 370.17 339.622L388.376 354.876L381.058 367.552L358.71 359.4C355.679 358.294 352.284 359.239 350.259 361.752C345.074 368.183 339.184 374.074 332.75 379.26C330.242 381.284 329.297 384.677 330.399 387.709L338.552 410.057L325.876 417.375L310.619 399.167C308.546 396.696 305.131 395.817 302.122 396.984C294.437 399.962 286.389 402.112 278.205 403.373C275.01 403.864 272.486 406.331 271.925 409.518L267.813 432.933H253.176L249.064 409.519C248.506 406.335 245.983 403.864 242.787 403.373C234.601 402.111 226.553 399.961 218.869 396.984C215.857 395.816 212.444 396.694 210.368 399.169L195.113 417.374L182.437 410.055L190.589 387.708C191.695 384.678 190.749 381.282 188.237 379.258C181.804 374.071 175.914 368.182 170.729 361.749C168.705 359.241 165.311 358.297 162.28 359.398L139.932 367.551L132.613 354.875L150.822 339.619C153.293 337.545 154.17 334.131 153.004 331.12C150.026 323.437 147.876 315.389 146.615 307.203C146.124 304.006 143.653 301.481 140.47 300.923L117.055 296.811V282.174L140.47 278.063C143.653 277.504 146.124 274.981 146.615 271.786C147.877 263.596 150.027 255.548 153.004 247.867C154.171 244.857 153.294 241.442 150.819 239.365L132.613 224.112L139.932 211.435L162.28 219.587C165.311 220.695 168.706 219.748 170.731 217.235C175.914 210.805 181.805 204.914 188.237 199.73C190.75 197.704 191.695 194.308 190.59 191.278L182.438 168.93L195.114 161.611L210.368 179.816C212.441 182.292 215.858 183.17 218.869 182.003C226.552 179.026 234.6 176.876 242.787 175.614C245.984 175.123 248.508 172.653 249.066 169.47L253.178 146.055H267.815L271.926 169.469C272.485 172.653 275.009 175.123 278.204 175.614C286.393 176.876 294.441 179.026 302.125 182.004C305.13 183.169 308.546 182.292 310.621 179.818Z" fill="#F9F1E7"/>
<path d="M39.1718 152.168C42.076 154.308 46.1667 153.687 48.3061 150.781C50.4455 147.876 49.8253 143.786 46.9193 141.647C34.9174 132.809 27.7517 118.646 27.7517 103.764C27.7517 77.8418 48.8409 56.7526 74.763 56.7526C100.685 56.7526 121.774 77.8418 121.774 103.764C121.774 130.395 99.5255 151.906 72.654 150.729C69.025 150.565 65.998 153.365 65.8403 156.969C65.6818 160.574 68.4754 163.624 72.0808 163.783C106.598 165.297 134.841 137.603 134.841 103.765C134.841 70.6378 107.89 43.687 74.763 43.687C41.6361 43.687 14.6853 70.6378 14.6853 103.765C14.6862 122.782 23.8397 140.877 39.1718 152.168Z" fill="#F9F1E7"/>
<path d="M104.114 103.764C104.114 87.5798 90.947 74.4141 74.763 74.4141C58.5789 74.4141 45.4132 87.5807 45.4132 103.764C45.4132 119.947 58.5798 133.115 74.763 133.115C90.9461 133.115 104.114 119.947 104.114 103.764ZM58.4796 103.764C58.4796 94.7846 65.7846 87.4805 74.763 87.4805C83.7413 87.4805 91.0472 94.7855 91.0472 103.764C91.0472 112.742 83.7422 120.048 74.763 120.048C65.7837 120.048 58.4796 112.742 58.4796 103.764Z" fill="#F9F1E7"/>
<path d="M74.7638 98.1418C71.6588 98.1418 69.1418 100.659 69.1418 103.764C69.1418 106.869 71.6588 109.386 74.7638 109.386C77.8688 109.386 80.3859 106.869 80.3859 103.764C80.3859 100.659 77.8688 98.1418 74.7638 98.1418Z" fill="#F9F1E7"/>
<path d="M-23.1663 122.455L-4.85417 126.716C-3.14247 132.665 -0.765244 138.396 2.24004 143.824L-7.70003 159.793C-9.56416 162.787 -9.12427 166.619 -6.63033 169.113L9.4126 185.156C11.9074 187.651 15.7411 188.091 18.7333 186.227L34.7031 176.287C40.1317 179.293 45.8635 181.669 51.8105 183.381L56.0719 201.691C56.8707 205.128 59.8916 207.528 63.4196 207.528H86.1072C89.6351 207.528 92.6569 205.128 93.4548 201.694L97.7162 183.382C103.664 181.67 109.396 179.294 114.824 176.288L130.793 186.228C133.787 188.093 137.619 187.652 140.113 185.158L156.156 169.115C158.648 166.623 159.089 162.792 157.227 159.794L147.287 143.825C150.293 138.396 152.669 132.664 154.381 126.717L172.691 122.456C176.128 121.657 178.528 118.636 178.528 115.108V92.4196C178.528 88.8952 176.13 85.8734 172.693 85.072L154.381 80.8106C152.67 74.8645 150.294 69.1344 147.287 63.7032L157.229 47.7299C159.09 44.736 158.649 40.9058 156.157 38.4136L140.114 22.3707C137.62 19.8758 133.787 19.4359 130.793 21.3001L114.824 31.2401C109.396 28.2349 103.665 25.8585 97.7162 24.1459L93.4557 5.83557C92.6569 2.39911 89.636 -0.000747681 86.1072 -0.000747681H63.4196C59.8916 -0.000747681 56.8698 2.39911 56.0719 5.83296L51.8105 24.1451C45.8618 25.8568 40.1317 28.2331 34.7031 31.2393L18.7368 21.3018C15.7411 19.4351 11.9083 19.8741 9.4126 22.3698L-6.63033 38.4127C-9.12427 40.9066 -9.56418 44.7395 -7.7009 47.7334L2.23915 63.7032C-0.766113 69.1301 -3.14247 74.861 -4.85504 80.8106L-23.1707 85.0728C-26.6036 85.8734 -29.0009 88.8943 -29.0009 92.4196V115.108C-29 118.636 -26.6001 121.657 -23.1663 122.455ZM-15.9336 96.8047L1.34628 92.7838C4.13553 92.1357 6.28714 90.0023 6.96049 87.2218C8.64868 80.2792 11.3961 73.6528 15.1279 67.5264C16.6157 65.083 16.6026 62.0568 15.0913 59.6238L5.70959 44.5522L15.5512 34.7106L30.622 44.0914C33.0515 45.6036 36.0794 45.6175 38.5254 44.1279C44.6527 40.3962 51.2791 37.6488 58.2156 35.9623C61.0014 35.2881 63.1347 33.1356 63.7828 30.3481L67.8046 13.0665H81.723L85.7457 30.3534C86.3964 33.1382 88.5279 35.2872 91.3067 35.9614C98.2485 37.6488 104.875 40.3962 111.002 44.1288C113.45 45.6193 116.479 45.6036 118.905 44.0922L133.976 34.7114L143.818 44.553L134.437 59.6238C132.923 62.0551 132.91 65.0856 134.401 67.5273C138.132 73.6554 140.88 80.2818 142.568 87.2244C143.245 90.0067 145.396 92.1374 148.181 92.7846L165.462 96.8064V110.725L148.182 114.746C145.396 115.394 143.245 117.524 142.567 120.309C140.88 127.25 138.132 133.877 134.403 139.999C132.91 142.446 132.923 145.476 134.437 147.907L143.819 162.978L133.977 172.82L118.905 163.437C116.476 161.926 113.449 161.913 111.003 163.402C104.877 167.133 98.2511 169.881 91.3076 171.569C88.5279 172.245 86.3981 174.394 85.7465 177.182L81.7247 194.463H67.8064L63.7854 177.184C63.1373 174.398 61.0075 172.247 58.2226 171.569C51.2809 169.882 44.6544 167.133 38.5272 163.402C36.0846 161.914 33.0585 161.927 30.6246 163.438L15.5529 172.82L5.71133 162.978L15.0948 147.902C16.6035 145.474 16.6166 142.447 15.1287 140.004C11.3978 133.878 8.64954 127.252 6.9631 120.314C6.28888 117.528 4.1364 115.395 1.34889 114.747L-15.9336 110.722V96.8047Z" fill="#F9F1E7"/>
<path d="M240.878 88.8647C251.769 88.8647 260.63 80.0039 260.63 69.1117C260.63 58.2196 251.769 49.3588 240.878 49.3588C229.987 49.3588 221.125 58.2196 221.125 69.1117C221.125 80.0039 229.987 88.8647 240.878 88.8647ZM240.878 62.4252C244.564 62.4252 247.564 65.4244 247.564 69.1117C247.564 72.7991 244.564 75.7983 240.878 75.7983C237.191 75.7983 234.191 72.7991 234.191 69.1117C234.191 65.4244 237.191 62.4252 240.878 62.4252Z" fill="#F9F1E7"/>
<path d="M191.375 75.6449H197.01C197.511 79.0308 198.398 82.294 199.622 85.3863L194.74 88.2052C191.615 90.0092 190.544 94.0049 192.348 97.1296C194.152 100.255 198.148 101.326 201.273 99.5207L206.172 96.6923C208.27 99.3273 210.661 101.718 213.296 103.817L210.468 108.717C208.664 111.841 209.735 115.837 212.859 117.641C215.984 119.446 219.979 118.375 221.784 115.25L224.602 110.368C227.696 111.592 230.959 112.478 234.345 112.981V118.616C234.345 122.224 237.27 125.149 240.878 125.149C244.486 125.149 247.411 122.224 247.411 118.616V112.981C250.797 112.479 254.06 111.592 257.153 110.368L259.972 115.25C261.776 118.376 265.772 119.446 268.897 117.641C272.021 115.837 273.092 111.841 271.288 108.717L268.459 103.817C271.094 101.718 273.486 99.3273 275.584 96.6923L280.484 99.5207C283.609 101.326 287.604 100.254 289.408 97.1296C291.212 94.0049 290.142 90.0092 287.017 88.2052L282.135 85.3863C283.359 82.2931 284.245 79.0308 284.747 75.6449H290.382C293.99 75.6449 296.915 72.7198 296.915 69.1117C296.915 65.5036 293.99 62.5785 290.382 62.5785H284.747C284.245 59.1925 283.359 55.9294 282.135 52.8371L287.017 50.0182C290.142 48.2142 291.212 44.2184 289.408 41.0938C287.599 37.9588 283.6 36.903 280.484 38.7027L275.584 41.5311C273.486 38.8961 271.094 36.5049 268.459 34.4064L271.288 29.5074C273.092 26.3828 272.021 22.3871 268.897 20.5831C265.786 18.7869 261.784 19.8357 259.972 22.9742L257.153 27.8567C254.06 26.6319 250.798 25.746 247.412 25.2443V19.6092C247.412 16.0011 244.487 13.076 240.879 13.076C237.271 13.076 234.346 16.0011 234.346 19.6092V25.2443C230.96 25.746 227.697 26.6328 224.603 27.8576L221.784 22.9751C219.975 19.84 215.976 18.7842 212.86 20.5839C209.735 22.388 208.665 26.3837 210.469 29.5083L213.297 34.4082C210.662 36.5067 208.271 38.8978 206.173 41.5329L201.274 38.7044C198.163 36.9082 194.161 37.957 192.349 41.0956C190.545 44.2202 191.616 48.2159 194.74 50.0199L199.623 52.8388C198.398 55.932 197.512 59.1943 197.01 62.5802H191.375C187.767 62.5802 184.842 65.5054 184.842 69.1134C184.842 72.7215 187.766 75.6449 191.375 75.6449ZM240.878 37.829C258.126 37.829 272.16 51.8623 272.16 69.1117C272.16 86.3611 258.126 100.394 240.878 100.394C223.629 100.394 209.595 86.3611 209.595 69.1117C209.595 51.8623 223.629 37.829 240.878 37.829Z" fill="#F9F1E7"/>
</g>
<defs>
<clipPath id="clip0">
<rect width="446" height="446" fill="white" transform="translate(417 446) rotate(-180)"/>
</clipPath>
</defs>
</svg>
