<svg width="70" height="70" viewBox="0 0 70 70" fill="none" xmlns="http://www.w3.org/2000/svg">
<g clip-path="url(#clip0)">
<path d="M53.7734 31.4453C55.2836 31.4453 56.5078 30.2211 56.5078 28.7109C56.5078 27.2008 55.2836 25.9766 53.7734 25.9766C52.2633 25.9766 51.0391 27.2008 51.0391 28.7109C51.0391 30.2211 52.2633 31.4453 53.7734 31.4453Z" fill="#F9F1E7"/>
<path d="M60.0625 5.46875H56.5078V2.73438C56.5078 1.22418 55.2836 0 53.7734 0C52.2632 0 51.0391 1.22418 51.0391 2.73438V5.46875H38.5977V2.73438C38.5977 1.22418 37.3735 0 35.8633 0C34.3531 0 33.1289 1.22418 33.1289 2.73438V5.46875H20.8242V2.73438C20.8242 1.22418 19.6 0 18.0898 0C16.5796 0 15.3555 1.22418 15.3555 2.73438V5.46875H11.9375C5.90656 5.46875 1 10.3753 1 16.4062V59.0625C1 65.0934 5.90656 70 11.9375 70H32.8555C34.3657 70 35.5898 68.7758 35.5898 67.2656C35.5898 65.7554 34.3657 64.5312 32.8555 64.5312H11.9375C8.92203 64.5312 6.46875 62.078 6.46875 59.0625V16.4062C6.46875 13.3908 8.92203 10.9375 11.9375 10.9375H15.3555V13.6719C15.3555 15.1821 16.5796 16.4062 18.0898 16.4062C19.6 16.4062 20.8242 15.1821 20.8242 13.6719V10.9375H33.1289V13.6719C33.1289 15.1821 34.3531 16.4062 35.8633 16.4062C37.3735 16.4062 38.5977 15.1821 38.5977 13.6719V10.9375H51.0391V13.6719C51.0391 15.1821 52.2632 16.4062 53.7734 16.4062C55.2836 16.4062 56.5078 15.1821 56.5078 13.6719V10.9375H60.0625C63.078 10.9375 65.5312 13.3908 65.5312 16.4062V31.9922C65.5312 33.5024 66.7554 34.7266 68.2656 34.7266C69.7758 34.7266 71 33.5024 71 31.9922V16.4062C71 10.3753 66.0934 5.46875 60.0625 5.46875Z" fill="#F9F1E7"/>
<path d="M54.457 36.9141C45.3352 36.9141 37.9141 44.3352 37.9141 53.457C37.9141 62.5789 45.3352 70 54.457 70C63.5789 70 71 62.5789 71 53.457C71 44.3352 63.5789 36.9141 54.457 36.9141ZM54.457 64.5312C48.3508 64.5312 43.3828 59.5634 43.3828 53.457C43.3828 47.3506 48.3508 42.3828 54.457 42.3828C60.5633 42.3828 65.5312 47.3506 65.5312 53.457C65.5312 59.5634 60.5633 64.5312 54.457 64.5312Z" fill="#F9F1E7"/>
<path d="M58.4219 50.7227H57.1914V47.8516C57.1914 46.3414 55.9672 45.1172 54.457 45.1172C52.9468 45.1172 51.7227 46.3414 51.7227 47.8516V53.457C51.7227 54.9672 52.9468 56.1914 54.457 56.1914H58.4219C59.9321 56.1914 61.1562 54.9672 61.1562 53.457C61.1562 51.9468 59.9321 50.7227 58.4219 50.7227Z" fill="#F9F1E7"/>
<path d="M41.8789 31.4453C43.3891 31.4453 44.6133 30.2211 44.6133 28.7109C44.6133 27.2008 43.3891 25.9766 41.8789 25.9766C40.3688 25.9766 39.1445 27.2008 39.1445 28.7109C39.1445 30.2211 40.3688 31.4453 41.8789 31.4453Z" fill="#F9F1E7"/>
<path d="M29.9844 43.3398C31.4945 43.3398 32.7188 42.1156 32.7188 40.6055C32.7188 39.0953 31.4945 37.8711 29.9844 37.8711C28.4742 37.8711 27.25 39.0953 27.25 40.6055C27.25 42.1156 28.4742 43.3398 29.9844 43.3398Z" fill="#F9F1E7"/>
<path d="M18.0898 31.4453C19.6 31.4453 20.8242 30.2211 20.8242 28.7109C20.8242 27.2008 19.6 25.9766 18.0898 25.9766C16.5797 25.9766 15.3555 27.2008 15.3555 28.7109C15.3555 30.2211 16.5797 31.4453 18.0898 31.4453Z" fill="#F9F1E7"/>
<path d="M18.0898 43.3398C19.6 43.3398 20.8242 42.1156 20.8242 40.6055C20.8242 39.0953 19.6 37.8711 18.0898 37.8711C16.5797 37.8711 15.3555 39.0953 15.3555 40.6055C15.3555 42.1156 16.5797 43.3398 18.0898 43.3398Z" fill="#F9F1E7"/>
<path d="M18.0898 55.2344C19.6 55.2344 20.8242 54.0102 20.8242 52.5C20.8242 50.9898 19.6 49.7656 18.0898 49.7656C16.5797 49.7656 15.3555 50.9898 15.3555 52.5C15.3555 54.0102 16.5797 55.2344 18.0898 55.2344Z" fill="#F9F1E7"/>
<path d="M29.9844 55.2344C31.4945 55.2344 32.7188 54.0102 32.7188 52.5C32.7188 50.9898 31.4945 49.7656 29.9844 49.7656C28.4742 49.7656 27.25 50.9898 27.25 52.5C27.25 54.0102 28.4742 55.2344 29.9844 55.2344Z" fill="#F9F1E7"/>
<path d="M29.9844 31.4453C31.4945 31.4453 32.7188 30.2211 32.7188 28.7109C32.7188 27.2008 31.4945 25.9766 29.9844 25.9766C28.4742 25.9766 27.25 27.2008 27.25 28.7109C27.25 30.2211 28.4742 31.4453 29.9844 31.4453Z" fill="#F9F1E7"/>
</g>
<defs>
<clipPath id="clip0">
<rect width="70" height="70" fill="white"/>
</clipPath>
</defs>
</svg>
