<svg width="24" height="24" viewBox="0 0 24 24" fill="none" xmlns="http://www.w3.org/2000/svg">
<path d="M20.8944 0.4L20.1788 0.042C20.174 0.0396 20.1688 0.0388 20.164 0.0368C20.1552 0.0328 20.146 0.0308 20.1372 0.0276C20.0976 0.0132 20.0572 0.0048 20.016 0.0032C20.0104 0.0028 20.0056 0 20 0H18.8C18.5792 0 18.4 0.1788 18.4 0.4H5.6C5.6 0.1788 5.4208 0 5.2 0H4C3.9944 0 3.9896 0.0028 3.984 0.0032C3.9428 0.0048 3.9024 0.0132 3.8628 0.0276C3.854 0.0308 3.8448 0.0332 3.836 0.0372C3.8312 0.0392 3.826 0.0396 3.8212 0.042L3.1056 0.4H0V24H2V23.0472L3.8212 23.9576C3.8248 23.9592 3.8288 23.9584 3.8324 23.9604C3.8836 23.9844 3.9396 24 4 24H5.2C5.4208 24 5.6 23.8212 5.6 23.6V22.8H18.4V23.6C18.4 23.8212 18.5792 24 18.8 24H20C20.0604 24 20.1164 23.9844 20.1676 23.9604C20.1712 23.9588 20.1752 23.9596 20.1788 23.9576L22 23.0472V24H24V0.4H20.8944ZM18.4 1.2V1.6H12.4H11.6H5.6V1.2H18.4ZM18.4 5.6H12.4V2.4H18.4V5.6ZM18.4 9.6H12.4V6.4H18.4V9.6ZM18.4 13.6H17.9264C17.9712 13.4744 18 13.3408 18 13.2C18 12.8916 17.8796 12.6128 17.688 12.4C17.88 12.1872 18 11.9084 18 11.6C18 10.9384 17.4616 10.4 16.8 10.4H18.4V13.6ZM13.6 13.2C13.6 12.9792 13.7796 12.8 14 12.8H16.8C17.0204 12.8 17.2 12.9792 17.2 13.2C17.2 13.4208 17.0204 13.6 16.8 13.6H14C13.7796 13.6 13.6 13.4208 13.6 13.2ZM16.8 12H14C13.7796 12 13.6 11.8208 13.6 11.6C13.6 11.3792 13.7796 11.2 14 11.2H16.8C17.0204 11.2 17.2 11.3792 17.2 11.6C17.2 11.8208 17.0204 12 16.8 12ZM12.8 11.6C12.8 11.9084 12.9204 12.1872 13.112 12.4C12.92 12.6128 12.8 12.8916 12.8 13.2C12.8 13.3408 12.8288 13.4744 12.8736 13.6H12.4V10.4H14C13.3384 10.4 12.8 10.9384 12.8 11.6ZM11.6 10.4V13.6V14.4V17.6H11.1264C11.1712 17.4744 11.2 17.3408 11.2 17.2C11.2 16.5384 10.6616 16 10 16H7.2C6.5384 16 6 16.5384 6 17.2C6 17.3408 6.0288 17.4744 6.0736 17.6H5.6V8.4H6.4V9.2C6.4 9.4212 6.5792 9.6 6.8 9.6C7.0208 9.6 7.2 9.4212 7.2 9.2V8.4H7.6V9.2C7.6 9.4212 7.7792 9.6 8 9.6C8.2208 9.6 8.4 9.4212 8.4 9.2V8.4H8.8V9.2C8.8 9.4212 8.9792 9.6 9.2 9.6C9.4208 9.6 9.6 9.4212 9.6 9.2V8.4H10V9.2C10 9.4212 10.1792 9.6 10.4 9.6C10.6208 9.6 10.8 9.4212 10.8 9.2V8.4H11.6V9.6V10.4ZM6.8 17.2C6.8 16.9792 6.9796 16.8 7.2 16.8H10C10.2204 16.8 10.4 16.9792 10.4 17.2C10.4 17.4208 10.2204 17.6 10 17.6H7.2C6.9796 17.6 6.8 17.4208 6.8 17.2ZM11.6 7.6H10.8V7.2C10.8 6.9788 10.6208 6.8 10.4 6.8C10.1792 6.8 10 6.9788 10 7.2V7.6H9.6V7.2C9.6 6.9788 9.4208 6.8 9.2 6.8C8.9792 6.8 8.8 6.9788 8.8 7.2V7.6H8.4V7.2C8.4 6.9788 8.2208 6.8 8 6.8C7.7792 6.8 7.6 6.9788 7.6 7.2V7.6H7.2V7.2C7.2 6.9788 7.0208 6.8 6.8 6.8C6.5792 6.8 6.4 6.9788 6.4 7.2V7.6H5.6V6.4H11.6V7.6ZM11.6 5.6H5.6V2.4H11.6V5.6ZM5.6 18.4H7.2H10H11.6V20.8H5.6V18.4ZM12.4 18.4H18.4V20.8H12.4V18.4ZM18.4 17.6H12.4V14.4H14H16.8H18.4V17.6ZM1.2 23.2H0.8V1.2H1.5056L1.4212 1.242H1.4208L1.2 1.3528V1.6V22.4V23.2ZM2 1.8472L3.6 1.0472V22.9528L2 22.1528V1.8472ZM4.8 23.2H4.4V0.8H4.8V1.6V21.6V22.8V23.2ZM5.6 22V21.6H11.6H12.4H18.4V22H5.6ZM19.2 22.8V21.6V18.4V14.4V13.6V10.4V9.6V6.4V5.6V1.6V0.8H19.6V23.2H19.2V22.8ZM20.4 22.9528V1.0472L22 1.8472V22.1528L20.4 22.9528ZM23.2 23.2H22.8V22.4V1.6V1.3528L22.5792 1.2424C22.5792 1.2424 22.5788 1.2424 22.5788 1.242L22.4944 1.2H23.2V23.2Z" fill="#EAEAEA"/>
<path d="M13.2 5.20002H17.6C17.8208 5.20002 18 5.02122 18 4.80002C18 4.57882 17.8208 4.40002 17.6 4.40002H13.2C12.9792 4.40002 12.8 4.57882 12.8 4.80002C12.8 5.02122 12.9792 5.20002 13.2 5.20002Z" fill="#EAEAEA"/>
</svg>
