<svg width="20" height="30" viewBox="0 0 20 30" fill="none" xmlns="http://www.w3.org/2000/svg">
<path d="M19.6667 10.584H0.333333C0.14925 10.584 0 10.7547 0 10.9654V12.4909C0 12.7015 0.14925 12.8723 0.333333 12.8723H0.666667V29.2716C0.666667 29.4822 0.815917 29.653 1 29.653H1.33333C3.60373 29.653 1.81592 29.653 2 29.653H3.26C3.41842 29.653 3.61396 29.653 3.94 29.653H16.06H17.0535C16.8951 29.653 16.6094 29.653 17.0535 29.653H18.3333C18.5174 29.653 19 29.653 18.5 29.653H19C19.1841 29.653 19.3333 29.4822 19.3333 29.2716V12.8723H19.6667C19.8508 12.8723 20 12.7015 20 12.4909V10.9654C20 10.7547 19.8508 10.584 19.6667 10.584ZM3 29.653H2.32542H2H3.26H3ZM18 29.653H17.2733H16.74H18ZM18.6667 28.8902H1.33333V12.8723H18.6667V28.8902ZM19.3333 12.1095H0.666667V11.3467H19.3333V12.1095Z" fill="#FAFAFA"/>
<path d="M17.3333 13.635H2.66665C2.48256 13.635 2.33331 13.8058 2.33331 14.0164V20.1185C2.33331 20.3291 2.48256 20.4999 2.66665 20.4999H17.3333C17.5174 20.4999 17.6666 20.3291 17.6666 20.1185V14.0164C17.6666 13.8058 17.5174 13.635 17.3333 13.635ZM17 19.7371H2.99998V14.3978H17V19.7371Z" fill="#FAFAFA"/>
<path d="M17.3333 21.2626H2.66665C2.48256 21.2626 2.33331 21.4334 2.33331 21.644V27.7461C2.33331 27.9567 2.48256 28.1275 2.66665 28.1275H17.3333C17.5174 28.1275 17.6666 27.9567 17.6666 27.7461V21.644C17.6666 21.4334 17.5174 21.2626 17.3333 21.2626ZM17 27.3647H2.99998V22.0254H17V27.3647Z" fill="#FAFAFA"/>
<path d="M10 15.1605C9.44771 15.1605 9 15.6726 9 16.3043C9 16.936 9.44771 17.4481 10 17.4481C10.5523 17.4481 11 16.936 11 16.3043C11 15.6726 10.5523 15.1605 10 15.1605ZM10 16.6856C9.81592 16.6856 9.66667 16.5149 9.66667 16.3043C9.66667 16.0938 9.81592 15.923 10 15.923C10.1841 15.923 10.3333 16.0938 10.3333 16.3043C10.3333 16.5149 10.1841 16.6856 10 16.6856Z" fill="#FAFAFA"/>
<path d="M10 22.7882C9.44771 22.7882 9 23.3003 9 23.932C9 24.5637 9.44771 25.0758 10 25.0758C10.5523 25.0758 11 24.5637 11 23.932C11 23.3003 10.5523 22.7882 10 22.7882ZM10 24.3133C9.81592 24.3133 9.66667 24.1425 9.66667 23.932C9.66667 23.7214 9.81592 23.5507 10 23.5507C10.1841 23.5507 10.3333 23.7214 10.3333 23.932C10.3333 24.1425 10.1841 24.3133 10 24.3133Z" fill="#FAFAFA"/>
<rect x="1.33557" y="7.15424" width="10.4144" height="3.17984" rx="1.58992" stroke="#FAFAFA" stroke-width="0.5"/>
<line x1="2.45514" y1="8.75" x2="10.5874" y2="8.75" stroke="#FAFAFA" stroke-width="0.5"/>
<rect x="1.29297" y="3.98541" width="10.4144" height="3.17982" rx="1.58991" stroke="#FAFAFA" stroke-width="0.5"/>
<line x1="2.4126" y1="5.54999" x2="10.5449" y2="5.54999" stroke="#FAFAFA" stroke-width="0.5"/>
<rect x="1.25" y="0.765564" width="10.4144" height="3.17982" rx="1.58991" stroke="#FAFAFA" stroke-width="0.5"/>
<line x1="2.36963" y1="2.24994" x2="10.5019" y2="2.24994" stroke="#FAFAFA" stroke-width="0.5"/>
</svg>
