<svg width="70" height="70" viewBox="0 0 70 70" fill="none" xmlns="http://www.w3.org/2000/svg">
<g clip-path="url(#clip0)">
<path d="M53.6472 -0.136719H16.4073C13.1613 -0.13298 10.5311 2.49726 10.5273 5.74326V63.9834C10.5311 67.2294 13.1613 69.8596 16.4073 69.8634H53.6472C56.8932 69.8596 59.5234 67.2294 59.5272 63.9834V5.74326C59.5234 2.49726 56.8932 -0.13298 53.6472 -0.136719ZM57.1939 63.9834C57.1923 65.9412 55.605 67.5279 53.6472 67.5301H16.4073C14.4494 67.5279 12.8622 65.9412 12.8606 63.9834V5.74326C12.8622 3.78541 14.4494 2.19872 16.4073 2.19658H53.6472C55.605 2.19872 57.1923 3.78541 57.1939 5.74326V63.9834Z" fill="#F9F1E7"/>
<path d="M25.0382 32.0868C25.4286 32.3517 25.9402 32.3559 26.3344 32.0969L29.496 30.0184L31.5751 33.18C31.9297 33.7178 32.6533 33.8663 33.1917 33.5111C33.4491 33.3413 33.6291 33.0764 33.6915 32.7736L35.2243 25.3528L36.7565 32.7736C36.8863 33.4048 37.5031 33.8113 38.1338 33.6815C38.4377 33.619 38.7037 33.4385 38.874 33.18L40.9542 30.0184L44.1148 32.0969C44.6525 32.4515 45.3762 32.302 45.7303 31.7642C45.9006 31.5052 45.961 31.1896 45.8985 30.8862L43.28 18.2093C45.6897 13.6527 43.9492 8.00503 39.3926 5.59536C34.836 3.18569 29.1884 4.92618 26.7787 9.48277C25.2395 12.3934 25.348 15.8995 27.0633 18.7097L24.5517 30.8862C24.4566 31.3476 24.6483 31.8214 25.0382 32.0868ZM41.2607 27.4271C40.7224 27.073 39.9993 27.222 39.6452 27.7609L38.4783 29.5431L37.1181 22.9538C38.7261 22.5832 40.207 21.7917 41.4087 20.6601L43.0493 28.5994L41.2607 27.4271ZM35.0272 6.86321C38.8933 6.86321 42.0271 9.99706 42.0271 13.8631C42.0271 17.7292 38.8933 20.8635 35.0272 20.8635C31.1612 20.8635 28.0273 17.7292 28.0273 13.8631C28.0311 9.99867 31.1628 6.86695 35.0272 6.86321ZM28.9838 20.9623C30.2228 22.0209 31.7182 22.7349 33.3204 23.0334L31.9767 29.5431L30.8039 27.7609C30.4503 27.2258 29.731 27.0768 29.1937 27.4271L27.4116 28.5935L28.9838 20.9623Z" fill="#F9F1E7"/>
<path d="M19.8605 38.3635H50.194V40.6968H19.8605V38.3635Z" fill="#F9F1E7"/>
<path d="M19.8605 46.5298H50.194V48.8631H19.8605V46.5298Z" fill="#F9F1E7"/>
<path d="M19.8605 55.863H50.194V58.1963H19.8605V55.863Z" fill="#F9F1E7"/>
</g>
<defs>
<clipPath id="clip0">
<rect width="70" height="70" fill="white"/>
</clipPath>
</defs>
</svg>
