<svg width="40" height="40" viewBox="0 0 40 40" fill="none" xmlns="http://www.w3.org/2000/svg">
<path d="M28.2812 0H11.7188C5.25703 0 0 5.25703 0 11.7188V28.2812C0 34.743 5.25703 40 11.7188 40H28.2812C34.743 40 40 34.743 40 28.2812V11.7188C40 5.25703 34.743 0 28.2812 0ZM38.4375 28.2812C38.4375 33.8814 33.8814 38.4375 28.2812 38.4375H11.7188C6.11859 38.4375 1.5625 33.8814 1.5625 28.2812V11.7188C1.5625 6.11859 6.11859 1.5625 11.7188 1.5625H28.2812C33.8814 1.5625 38.4375 6.11859 38.4375 11.7188V28.2812Z" fill="black"/>
<path d="M28.2812 3.4375H11.7188C7.15242 3.4375 3.4375 7.15242 3.4375 11.7188V28.2812C3.4375 32.8476 7.15242 36.5625 11.7188 36.5625H16.4844C16.9159 36.5625 17.2656 36.2127 17.2656 35.7812C17.2656 35.3498 16.9159 35 16.4844 35H11.7188C8.01406 35 5 31.9859 5 28.2812V11.7188C5 8.01406 8.01406 5 11.7188 5H28.2812C31.9859 5 35 8.01406 35 11.7188V28.2812C35 31.9859 31.9859 35 28.2812 35H23.5677C23.1362 35 22.7865 35.3498 22.7865 35.7812C22.7865 36.2127 23.1362 36.5625 23.5677 36.5625H28.2812C32.8476 36.5625 36.5625 32.8476 36.5625 28.2812V11.7188C36.5625 7.15242 32.8476 3.4375 28.2812 3.4375Z" fill="black"/>
<path d="M20.5523 35.2289C20.407 35.0836 20.2055 35 20 35C19.7945 35 19.593 35.0836 19.4477 35.2289C19.3023 35.3742 19.2188 35.5758 19.2188 35.7812C19.2188 35.9867 19.3023 36.1883 19.4477 36.3336C19.593 36.4789 19.7945 36.5625 20 36.5625C20.2055 36.5625 20.407 36.4789 20.5523 36.3336C20.6977 36.1883 20.7812 35.9867 20.7812 35.7812C20.7812 35.5758 20.6977 35.3742 20.5523 35.2289Z" fill="black"/>
<path d="M13.7367 12.1646C13.4417 11.8497 12.9474 11.8336 12.6324 12.1286L12.5978 12.1611C12.284 12.4572 12.2696 12.9517 12.5658 13.2655C12.7195 13.4284 12.9266 13.5106 13.1342 13.5106C13.3265 13.5106 13.5192 13.44 13.6702 13.2975L13.7007 13.2689C14.0156 12.9739 14.0317 12.4794 13.7367 12.1646Z" fill="black"/>
<path d="M20 9.21875C18.2841 9.21875 16.5763 9.63211 15.0612 10.4141C14.6778 10.612 14.5274 11.0833 14.7253 11.4667C14.9233 11.8501 15.3945 12.0004 15.7779 11.8026C17.0908 11.1248 18.5113 10.7812 20 10.7812C25.0832 10.7812 29.2188 14.9168 29.2188 20C29.2188 25.0832 25.0832 29.2188 20 29.2188C14.9168 29.2188 10.7812 25.0832 10.7812 20C10.7812 18.4048 11.1949 16.833 11.9776 15.4548C12.1906 15.0797 12.0592 14.6028 11.684 14.3897C11.3087 14.1767 10.832 14.308 10.6188 14.6833C9.70289 16.2962 9.21875 18.1348 9.21875 20C9.21875 25.9448 14.0552 30.7812 20 30.7812C25.9448 30.7812 30.7812 25.9448 30.7812 20C30.7812 14.0552 25.9448 9.21875 20 9.21875Z" fill="black"/>
<path d="M20 12.9688C16.123 12.9688 12.9688 16.123 12.9688 20C12.9688 23.877 16.123 27.0312 20 27.0312C23.877 27.0312 27.0312 23.877 27.0312 20C27.0312 16.123 23.877 12.9688 20 12.9688ZM20 25.4688C16.9845 25.4688 14.5312 23.0155 14.5312 20C14.5312 16.9845 16.9845 14.5312 20 14.5312C23.0155 14.5312 25.4688 16.9845 25.4688 20C25.4688 23.0155 23.0155 25.4688 20 25.4688Z" fill="black"/>
<path d="M30.2539 6.77734C28.617 6.77734 27.2852 8.10914 27.2852 9.74609C27.2852 11.383 28.617 12.7148 30.2539 12.7148C31.8909 12.7148 33.2227 11.383 33.2227 9.74609C33.2227 8.10914 31.8909 6.77734 30.2539 6.77734ZM30.2539 11.1523C29.4785 11.1523 28.8477 10.5215 28.8477 9.74609C28.8477 8.9707 29.4785 8.33984 30.2539 8.33984C31.0293 8.33984 31.6602 8.9707 31.6602 9.74609C31.6602 10.5215 31.0293 11.1523 30.2539 11.1523Z" fill="black"/>
</svg>
