<svg width="24" height="24" viewBox="0 0 24 24" fill="none" xmlns="http://www.w3.org/2000/svg">
<g clip-path="url(#clip0)">
<path d="M17.2 14.4H6.80002C6.57924 14.4 6.40003 14.5788 6.40003 14.8V23.6C6.40003 23.8212 6.57924 24 6.80002 24H17.2C17.4212 24 17.6 23.8212 17.6 23.6V14.8C17.6 14.5788 17.4212 14.4 17.2 14.4ZM16.8 23.2H7.2V15.2H16.8V23.2Z" fill="#FAFAFA"/>
<path d="M17.2 14.4H6.80002C6.57924 14.4 6.40003 14.5788 6.40003 14.8V23.6C6.40003 23.8212 6.57924 24 6.80002 24H17.2C17.4212 24 17.6 23.8212 17.6 23.6V14.8C17.6 14.5788 17.4212 14.4 17.2 14.4ZM16.8 23.2H7.2V15.2H16.8V23.2Z" fill="#FAFAFA"/>
<path d="M6.80001 14.4H0.399984C0.179203 14.4 0 14.5788 0 14.8V23.6C0 23.8212 0.179203 24 0.399984 24H6.79997C7.02075 24 7.19995 23.8212 7.19995 23.6V14.8C7.2 14.5788 7.0208 14.4 6.80001 14.4ZM6.39998 23.2H0.800015V15.2H6.40003V23.2H6.39998Z" fill="#FAFAFA"/>
<path d="M23.6 14.4H17.2C16.9788 14.4 16.8 14.5788 16.8 14.8V23.6C16.8 23.8212 16.9788 24 17.2 24H23.6C23.8212 24 24 23.8212 24 23.6V14.8C24 14.5788 23.8212 14.4 23.6 14.4ZM23.2 23.2H17.6V15.2H23.2V23.2H23.2Z" fill="#FAFAFA"/>
<path d="M15.6 17.6H8.4C8.17922 17.6 8.00002 17.7788 8.00002 18V22C8.00002 22.2212 8.17922 22.4 8.4 22.4H15.6C15.8212 22.4 16 22.2212 16 22V18C16 17.7788 15.8212 17.6 15.6 17.6ZM15.2 21.6H8.79998V18.4H15.2V21.6H15.2Z" fill="#FAFAFA"/>
<path d="M13.2 16H12.4V16.8H13.2V16Z" fill="#FAFAFA"/>
<path d="M11.6 16H10.8V16.8H11.6V16Z" fill="#FAFAFA"/>
<path d="M10 16H9.20001V16.8H10V16Z" fill="#FAFAFA"/>
<path d="M14.8 16H14V16.8H14.8V16Z" fill="#FAFAFA"/>
<path d="M6.79998 17.6H0.399986V18.4001H6.79998V17.6Z" fill="#FAFAFA"/>
<path d="M4.39997 16H2.79999V16.8H4.39997V16Z" fill="#FAFAFA"/>
<path d="M4.39997 19.2H2.79999V20H4.39997V19.2Z" fill="#FAFAFA"/>
<path d="M23.6 17.6H17.2V18.4001H23.6V17.6Z" fill="#FAFAFA"/>
<path d="M20.8 18H20V23.6H20.8V18Z" fill="#FAFAFA"/>
<path d="M21.2 16H19.6V16.8H21.2V16Z" fill="#FAFAFA"/>
<path d="M19.2 20H18.4V21.2H19.2V20Z" fill="#FAFAFA"/>
<path d="M22.4 20H21.6V21.2H22.4V20Z" fill="#FAFAFA"/>
<path d="M17.0828 6.51722L15.6 5.03442V0.399984C15.6 0.179203 15.4212 0 15.2 0H8.79999C8.57921 0 8.4 0.179203 8.4 0.399984V5.03437L6.9172 6.51717C6.80278 6.63155 6.76842 6.80358 6.83039 6.95316C6.89241 7.10236 7.03838 7.19995 7.2 7.19995H16.8C16.9616 7.19995 17.108 7.10236 17.1696 6.95316C17.2316 6.80358 17.1972 6.63159 17.0828 6.51722ZM8.16558 6.39998L9.08278 5.48278C9.15797 5.40797 9.19997 5.30597 9.19997 5.19998V0.800015H14.8V5.20003C14.8 5.30601 14.842 5.40801 14.9172 5.48283L15.8344 6.40003H8.16558V6.39998Z" fill="#FAFAFA"/>
<path d="M21.6 8.79999C20.7176 8.79999 20 9.5176 20 10.4V10.8H20.8V10.4C20.8 9.95878 21.1588 9.59996 21.6 9.59996C22.0412 9.59996 22.4001 9.95874 22.4001 10.4V14.8H23.2001V10.4C23.2 9.5176 22.4824 8.79999 21.6 8.79999Z" fill="#FAFAFA"/>
<path d="M22.8 12.8H21.6V13.6001H22.8V12.8Z" fill="#FAFAFA"/>
<path d="M11.6 12H7.60003C7.37925 12 7.20004 12.1788 7.20004 12.4V14.8C7.20004 15.0212 7.37925 15.2 7.60003 15.2H11.6C11.8208 15.2 12 15.0212 12 14.8V12.4C12 12.1788 11.8208 12 11.6 12ZM11.2 14.4H7.99996V12.8H11.2V14.4Z" fill="#FAFAFA"/>
<path d="M7.59999 12.8H6.39999V13.6001H7.59999V12.8Z" fill="#FAFAFA"/>
<path d="M12.8001 12.8H11.6V13.6001H12.8001V12.8Z" fill="#FAFAFA"/>
<path d="M6.80001 0H0.399984C0.179203 0 0 0.179203 0 0.399984V5.19998C0 5.42076 0.179203 5.59997 0.399984 5.59997H6.79997C7.02075 5.59997 7.19995 5.42076 7.19995 5.19998V0.399984C7.2 0.179203 7.0208 0 6.80001 0ZM6.39998 4.8H0.800015V0.800016H6.40003V4.8H6.39998Z" fill="#FAFAFA"/>
<path d="M5.60003 2.40002H4.80001V4.00001H5.60003V2.40002Z" fill="#FAFAFA"/>
<path d="M23.6 0H17.2C16.9788 0 16.8 0.179203 16.8 0.399984V5.19998C16.8 5.42076 16.9788 5.59997 17.2 5.59997H23.6C23.8212 5.59997 24 5.42076 24 5.19998V0.399984C24 0.179203 23.8212 0 23.6 0ZM23.2 4.8H17.6V0.800016H23.2V4.8H23.2Z" fill="#FAFAFA"/>
<path d="M19.2 2.40002H18.4V4.00001H19.2V2.40002Z" fill="#FAFAFA"/>
<path d="M7.2 8H0V8.80001H7.2V8Z" fill="#FAFAFA"/>
<path d="M1.60003 7.20001H0.800018V10.8H1.60003V7.20001Z" fill="#FAFAFA"/>
<path d="M1.2 10.4C0.538406 10.4 0 10.9384 0 11.6C0 12.2616 0.538406 12.8 1.2 12.8C1.86159 12.8 2.4 12.2616 2.4 11.6C2.4 10.9384 1.86159 10.4 1.2 10.4ZM1.2 12C0.979594 12 0.800016 11.8204 0.800016 11.6C0.800016 11.3796 0.979594 11.2 1.2 11.2C1.42041 11.2 1.59998 11.3796 1.59998 11.6C1.59998 11.8204 1.42041 12 1.2 12Z" fill="#FAFAFA"/>
<path d="M3.20001 7.20001H2.4V10.8H3.20001V7.20001Z" fill="#FAFAFA"/>
<path d="M2.79999 10.4C2.13839 10.4 1.59998 10.9384 1.59998 11.6C1.59998 12.2616 2.13839 12.8 2.79999 12.8C3.46158 12.8 3.99999 12.2616 3.99999 11.6C3.99999 10.9384 3.46158 10.4 2.79999 10.4ZM2.79999 12C2.57958 12 2.4 11.8204 2.4 11.6C2.4 11.3796 2.57958 11.2 2.79999 11.2C3.02039 11.2 3.19997 11.3796 3.19997 11.6C3.20002 11.8204 3.02039 12 2.79999 12Z" fill="#FAFAFA"/>
<path d="M4.79999 7.20001H3.99998V10.8H4.79999V7.20001Z" fill="#FAFAFA"/>
<path d="M4.40001 10.4C3.73842 10.4 3.20001 10.9384 3.20001 11.6C3.20001 12.2616 3.73842 12.8 4.40001 12.8C5.06161 12.8 5.60001 12.2616 5.60001 11.6C5.60001 10.9384 5.06161 10.4 4.40001 10.4ZM4.40001 12C4.17961 12 4.00003 11.8204 4.00003 11.6C4.00003 11.3796 4.17961 11.2 4.40001 11.2C4.62042 11.2 4.8 11.3796 4.8 11.6C4.8 11.8204 4.62042 12 4.40001 12Z" fill="#FAFAFA"/>
</g>
<defs>
<clipPath id="clip0">
<rect width="24" height="24" fill="white"/>
</clipPath>
</defs>
</svg>
