<svg width="100" height="100" viewBox="0 0 100 100" fill="none" xmlns="http://www.w3.org/2000/svg">
<path d="M47.8238 37.9477C47.7031 38.0432 47.6024 38.1615 47.5274 38.2959C47.4524 38.4302 47.4046 38.5781 47.3867 38.7309C47.3689 38.8838 47.3813 39.0387 47.4233 39.1867C47.4653 39.3348 47.536 39.4731 47.6315 39.5938C50.1441 42.7531 51.5052 46.6742 51.4902 50.7108C51.4892 54.712 50.1501 58.598 47.6861 61.7505C45.222 64.9031 41.7746 67.1411 37.8921 68.1086C34.0096 69.0761 29.915 68.7175 26.2598 67.0898C22.6046 65.4621 19.5986 62.6589 17.7201 59.1261C15.8416 55.5932 15.1984 51.5336 15.8929 47.5931C16.5874 43.6526 18.5796 40.0575 21.5527 37.3797C24.5258 34.7019 28.309 33.0952 32.3004 32.8152C36.2918 32.5352 40.2622 33.598 43.5801 35.8345C43.7076 35.9217 43.851 35.9829 44.0023 36.0145C44.1535 36.0461 44.3095 36.0475 44.4612 36.0186C44.613 35.9897 44.7575 35.9311 44.8865 35.8461C45.0156 35.7611 45.1265 35.6515 45.213 35.5235C45.2995 35.3955 45.3598 35.2516 45.3905 35.1002C45.4212 34.9488 45.4216 34.7928 45.3918 34.6412C45.362 34.4897 45.3025 34.3455 45.2168 34.217C45.131 34.0885 45.0207 33.9782 44.8922 33.8925C40.6562 31.0347 35.4979 29.8806 30.448 30.6608C25.3981 31.4409 20.8285 34.0978 17.6523 38.1006C14.4762 42.1034 12.9274 47.1572 13.3154 52.2523C13.7034 57.3473 15.9997 62.1084 19.7454 65.584C23.4911 69.0596 28.4104 70.9938 33.5202 71.0002C38.63 71.0066 43.554 69.0846 47.3084 65.6184C51.0628 62.1521 53.3709 57.3969 53.7717 52.3028C54.1724 47.2087 52.6363 42.151 49.4701 38.1403C49.3747 38.0196 49.2564 37.9188 49.122 37.8437C48.9876 37.7687 48.8397 37.7209 48.6869 37.703C48.534 37.6851 48.3791 37.6975 48.231 37.7395C48.0829 37.7815 47.9446 37.8523 47.8238 37.9477Z" fill="#F9F1E7"/>
<path d="M97.7519 66.334H63.4394V21.9941C63.4394 21.6833 63.316 21.3853 63.0962 21.1655C62.8764 20.9457 62.5784 20.8223 62.2676 20.8223H61.1113V15.5273C61.1113 15.2165 60.9879 14.9185 60.7681 14.6987C60.5483 14.4789 60.2503 14.3555 59.9394 14.3555H45.9687C45.6579 14.3555 45.3599 14.4789 45.1401 14.6987C44.9203 14.9185 44.7969 15.2165 44.7969 15.5273V20.8223H30.9648C23.0379 20.8225 15.4358 23.9715 9.83058 29.5767C4.22541 35.1819 1.07637 42.784 1.07616 50.7109C1.07616 67.1916 14.4842 80.5996 30.9648 80.5996L96.5801 80.6543V84.4727C96.5801 84.7835 96.7035 85.0815 96.9233 85.3013C97.1431 85.5211 97.4411 85.6445 97.7519 85.6445C98.0628 85.6445 98.3608 85.5211 98.5806 85.3013C98.8004 85.0815 98.9238 84.7835 98.9238 84.4727V67.5059C98.9238 67.1951 98.8004 66.897 98.5806 66.6772C98.3608 66.4575 98.0628 66.334 97.7519 66.334ZM47.1406 16.6992H58.7676V20.8223H47.1406V16.6992ZM61.0957 78.2559H30.9648C15.7766 78.2559 3.41991 65.8992 3.41991 50.7109C3.42007 43.4056 6.32217 36.3995 11.4878 31.2339C16.6534 26.0683 23.6595 23.1662 30.9648 23.166H61.0957V78.2559ZM96.5801 78.3106H63.4394V68.6777H69.1348V71.998C69.1348 72.3088 69.2582 72.6069 69.478 72.8267C69.6978 73.0465 69.9958 73.1699 70.3066 73.1699C70.6174 73.1699 70.9155 73.0465 71.1353 72.8267C71.355 72.6069 71.4785 72.3088 71.4785 71.998V68.6777H76.6211V71.998C76.6211 72.3088 76.7446 72.6069 76.9643 72.8267C77.1841 73.0465 77.4822 73.1699 77.793 73.1699C78.1038 73.1699 78.4018 73.0465 78.6216 72.8267C78.8414 72.6069 78.9648 72.3088 78.9648 71.998V68.6777H84.1055V71.998C84.1055 72.3088 84.2289 72.6069 84.4487 72.8267C84.6685 73.0465 84.9665 73.1699 85.2773 73.1699C85.5881 73.1699 85.8862 73.0465 86.106 72.8267C86.3258 72.6069 86.4492 72.3088 86.4492 71.998V68.6777H91.5898V71.998C91.5898 72.3088 91.7133 72.6069 91.9331 72.8267C92.1528 73.0465 92.4509 73.1699 92.7617 73.1699C93.0725 73.1699 93.3706 73.0465 93.5904 72.8267C93.8101 72.6069 93.9336 72.3088 93.9336 71.998V68.6777H96.5801V78.3106Z" fill="#F9F1E7"/>
<path d="M25.9668 50.7109C25.9666 52.2112 26.4113 53.6778 27.2447 54.9253C28.078 56.1728 29.2626 57.1451 30.6487 57.7193C32.0347 58.2935 33.5598 58.4438 35.0313 58.1512C36.5027 57.8585 37.8543 57.1361 38.9151 56.0753C39.976 55.0145 40.6984 53.6629 40.991 52.1914C41.2837 50.72 41.1334 49.1948 40.5592 47.8088C39.9849 46.4228 39.0126 45.2382 37.7651 44.4048C36.5176 43.5715 35.051 43.1268 33.5508 43.127C31.5401 43.1295 29.6126 43.9293 28.1909 45.351C26.7692 46.7728 25.9693 48.7003 25.9668 50.7109ZM38.793 50.7109C38.7932 51.7476 38.4859 52.7609 37.9102 53.623C37.3344 54.485 36.516 55.1569 35.5584 55.5538C34.6007 55.9507 33.5469 56.0547 32.5302 55.8526C31.5135 55.6506 30.5795 55.1516 29.8463 54.4187C29.1132 53.6858 28.6139 52.752 28.4114 51.7354C28.209 50.7187 28.3126 49.6649 28.7091 48.7071C29.1056 47.7493 29.7773 46.9306 30.6391 46.3546C31.5009 45.7785 32.5142 45.4709 33.5508 45.4707C34.9403 45.4723 36.2724 46.0249 37.2551 47.0072C38.2378 47.9895 38.7908 49.3215 38.793 50.7109Z" fill="#F9F1E7"/>
<path d="M16.7822 31.0627C17.018 31.0628 17.2482 30.9915 17.4426 30.858C18.6493 30.0331 19.9288 29.3201 21.2652 28.728C21.406 28.6657 21.5331 28.5763 21.6393 28.4649C21.7454 28.3535 21.8287 28.2223 21.8841 28.0788C21.9396 27.9352 21.9663 27.7821 21.9626 27.6283C21.9589 27.4744 21.925 27.3228 21.8627 27.1821C21.8004 27.0413 21.711 26.9142 21.5996 26.8081C21.4883 26.7019 21.357 26.6187 21.2135 26.5632C21.0699 26.5077 20.9169 26.481 20.763 26.4847C20.6092 26.4884 20.4575 26.5223 20.3168 26.5846C18.8495 27.2347 17.4447 28.0175 16.1199 28.9233C15.9131 29.0646 15.757 29.2684 15.6745 29.5049C15.5921 29.7414 15.5875 29.9981 15.6616 30.2374C15.7357 30.4767 15.8844 30.6859 16.0861 30.8345C16.2878 30.983 16.5318 31.063 16.7822 31.0627Z" fill="#F9F1E7"/>
<path d="M23.8902 25.3031C23.7405 25.3431 23.6001 25.4124 23.4773 25.5069C23.3545 25.6015 23.2517 25.7195 23.1748 25.8541C23.0979 25.9887 23.0484 26.1372 23.0293 26.291C23.0103 26.4449 23.0219 26.601 23.0635 26.7503C23.1052 26.8996 23.176 27.0391 23.272 27.1609C23.3679 27.2826 23.4871 27.3841 23.6226 27.4595C23.758 27.5348 23.9071 27.5826 24.0611 27.5999C24.2151 27.6173 24.3711 27.6039 24.5199 27.5605C26.6185 26.9764 28.7869 26.6807 30.9652 26.6816H48.2055C48.5163 26.6816 48.8143 26.5582 49.0341 26.3384C49.2539 26.1186 49.3773 25.8206 49.3773 25.5098C49.3773 25.199 49.2539 24.9009 49.0341 24.6811C48.8143 24.4614 48.5163 24.3379 48.2055 24.3379H30.9648C28.5738 24.337 26.1937 24.6617 23.8902 25.3031Z" fill="#F9F1E7"/>
</svg>
