<svg width="100" height="97" viewBox="0 0 100 97" fill="none" xmlns="http://www.w3.org/2000/svg">
<path d="M86.3531 70.7722C86.883 68.0604 86.8694 65.2759 86.3131 62.5691L93.9547 44.791C93.9554 44.7792 93.9554 44.7674 93.9547 44.7556C95.1929 41.4873 97.0077 38.4499 99.3188 35.7772C99.8938 35.1917 100.125 34.3668 99.9344 33.5817L96.8011 20.5372C96.7638 20.4009 96.7077 20.2699 96.6342 20.148C96.6209 20.1238 96.6159 20.0949 96.6025 20.0724C96.5892 20.0499 96.5308 19.9952 96.4974 19.9534C96.4291 19.857 96.3502 19.768 96.2621 19.688C96.2041 19.6486 96.1433 19.6131 96.0803 19.5818C95.9989 19.5241 95.9124 19.4735 95.8217 19.4306C95.6959 19.3848 95.5648 19.354 95.4312 19.3389C95.3929 19.3389 95.3595 19.3148 95.3211 19.3116C95.0013 19.291 94.6822 19.3597 94.4018 19.5094C94.3768 19.5223 94.3467 19.5271 94.3217 19.5416H94.305L82.524 26.63C81.8105 27.0559 81.3677 27.7997 81.346 28.6084C81.0187 32.0813 80.0698 35.4733 78.5413 38.6338V38.6515L74.7222 47.5511C72.8477 46.5905 70.841 45.8918 68.7624 45.4762C69.5492 40.2406 69.8385 34.9466 69.6267 29.6603C72.7326 26.0679 74.2231 21.4294 73.7678 16.7735C72.725 7.39943 63.9372 0.629486 63.5618 0.344791C62.9976 -0.0835507 62.2123 -0.115765 61.6124 0.264818C61.0124 0.645401 60.7324 1.35338 60.9173 2.0224C61.7765 5.13313 61.0324 8.41597 54.6855 15.1666C51.8339 17.821 50.9301 21.874 52.3981 25.4237C52.9593 26.7814 53.7635 28.0335 54.774 29.1231C54.3702 31.6082 54.0532 33.9613 53.8346 36.2533C53.4583 40.0443 53.3613 43.8562 53.5443 47.6604C52.0559 48.4384 50.6624 49.3744 49.3898 50.4511L41.2977 17.0919C41.2977 17.0581 41.2644 17.034 41.2544 17.0035C41.2272 16.8962 41.188 16.7921 41.1376 16.693L32.872 1.97736C32.0448 0.504466 30.2973 -0.252411 28.6056 0.129533C26.914 0.511478 25.6968 1.93772 25.6341 3.61154L25.0068 20.3313C25.0072 20.452 25.0212 20.5723 25.0485 20.69C25.0485 20.7158 25.0485 20.7383 25.0485 20.7624L33.3041 54.7279C32.0018 54.7834 30.709 54.9693 29.4466 55.2829L20.3651 34.1398C19.6369 32.5236 17.7055 31.761 16.0104 32.4204L2.13041 37.9599C0.431684 38.6435 -0.3756 40.5212 0.323454 42.1628L12.6401 70.806C5.42147 71.1713 -0.181804 77.0131 0.00451455 83.9793C0.190833 90.9455 6.09895 96.5011 13.3275 96.5073H86.7402C91.5089 96.4407 95.8784 93.9265 98.2029 89.912C100.527 85.8974 100.454 80.9923 98.0094 77.0444C95.5651 73.0965 91.1218 70.7055 86.3531 70.7722ZM84.6529 29.1392L91.6472 24.9315L89.1711 30.6962C88.8182 31.517 89.2224 32.4582 90.0738 32.7984C90.9252 33.1386 91.9016 32.749 92.2545 31.9282L94.7305 26.1636L96.5842 33.905C94.6009 36.2375 92.9717 38.83 91.7456 41.6046C90.0061 42.382 88.0085 42.4223 86.2368 41.7159C84.465 41.0094 83.0806 39.6207 82.4188 37.8859C83.5907 35.0874 84.3429 32.1422 84.6529 29.1392ZM80.8154 41.7671C81.9192 43.068 83.3516 44.0734 84.9749 44.6864C86.2653 45.2214 87.6531 45.5036 89.0577 45.5164C89.3956 45.5152 89.7332 45.4953 90.0688 45.4569L84.7447 57.8419C83.1505 54.4534 80.6843 51.514 77.5803 49.3027L80.8154 41.7671ZM57.9574 30.2796L66.3398 30.7734C66.3915 32.2757 66.3732 33.8294 66.3214 35.4073C63.529 35.5996 60.7227 35.469 57.9624 35.0181C57.7522 34.9891 57.547 34.9666 57.3384 34.9392C57.5052 33.4241 57.7088 31.8896 57.9541 30.2796H57.9574ZM57.1615 17.3268C61.5913 12.6156 63.8872 8.99179 64.4211 5.58511C67.6052 8.74336 69.707 12.7677 70.4426 17.1144C70.793 20.8985 69.5793 24.6628 67.0656 27.5886C63.7698 27.3956 60.5102 27.2026 57.2867 27.0096C55.9016 25.7613 55.1048 24.0223 55.0806 22.1946C55.0563 20.3669 55.8067 18.6088 57.1582 17.3268H57.1615ZM57.0347 38.1449L57.5186 38.206C59.6685 38.5265 61.8388 38.7044 64.014 38.7384C64.7047 38.7384 65.4322 38.6853 66.1613 38.6306C66.0094 40.7007 65.7608 42.8624 65.4455 45.0966C65.0334 45.0757 64.6296 45.0371 64.2158 45.0371C61.6968 45.0414 59.1967 45.4563 56.8212 46.2643C56.7442 43.5561 56.8144 40.846 57.0314 38.1449H57.0347ZM44.1291 56.954L39.3556 37.3519C39.1325 36.5015 38.2436 35.9803 37.3577 36.1803C36.4717 36.3803 35.9154 37.2278 36.1071 38.0854L40.3968 55.7284C39.2174 55.3218 37.999 55.0292 36.7595 54.855L29.4366 24.7288C30.4624 25.1791 31.5763 25.4127 32.7035 25.414C32.8086 25.414 32.9203 25.3995 33.0271 25.3947L34.2067 30.2506C34.3339 30.819 34.7693 31.277 35.3456 31.4485C35.9218 31.62 36.5493 31.4784 36.9867 31.078C37.424 30.6776 37.6032 30.0808 37.4553 29.5172L36.274 24.6581C37.406 24.1749 38.4044 23.4422 39.1888 22.5188L46.6335 53.2064C45.6667 54.3689 44.8275 55.6248 44.1291 56.954ZM33.9348 22.0508C31.8009 22.4497 29.6223 21.6087 28.3638 19.9003L28.5757 14.2353C29.1562 14.3399 29.7453 14.3937 30.3359 14.3962C30.9063 14.3985 31.4751 14.3375 32.0311 14.2144C33.1566 13.9295 34.2095 13.4247 35.1244 12.7314L37.9341 17.7305C37.5993 19.8046 36.0341 21.4967 33.9348 22.054V22.0508ZM29.3648 3.2609C29.5921 3.21016 29.8267 3.31138 29.9388 3.5086L33.516 9.88609C32.8707 10.4489 32.1001 10.8616 31.2636 11.0924C30.4085 11.2437 29.5288 11.2035 28.6924 10.975L28.9644 3.72735C28.9735 3.5026 29.1375 3.31152 29.3648 3.2609ZM17.2901 35.3864L18.5648 38.3556L12.3915 40.8197C11.6596 41.116 11.2456 41.8683 11.4015 42.6186C11.5574 43.3689 12.2401 43.9095 13.0339 43.9111C13.2531 43.9107 13.4701 43.8692 13.6729 43.7889L19.8462 41.3232L21.1226 44.2956L18.0343 45.5292C17.2982 45.8229 16.8802 46.5772 17.0361 47.3303C17.192 48.0833 17.8784 48.6251 18.675 48.6239C18.8936 48.6232 19.11 48.5816 19.3123 48.5017L22.4006 47.268L23.677 50.2404L17.4987 52.7093C16.7626 53.003 16.3446 53.7573 16.5005 54.5104C16.6564 55.2634 17.3428 55.8052 18.1394 55.804C18.358 55.8034 18.5745 55.7619 18.7767 55.6818L24.9501 53.2176L26.2999 56.3589C20.863 58.7513 16.8762 63.4292 15.4965 69.0351L3.40345 40.9259L17.2901 35.3864ZM86.7402 93.2904H13.3275C7.79869 93.2904 3.31669 88.9697 3.31669 83.6398C3.31669 78.3098 7.79869 73.9891 13.3275 73.9891C14.2943 73.986 15.2562 74.1204 16.1823 74.388C16.6825 74.5337 17.2247 74.445 17.6471 74.1483C18.0695 73.8517 18.3234 73.3814 18.3329 72.8776C18.4516 67.1453 21.8891 61.9593 27.2353 59.4472C32.5815 56.935 38.9366 57.5194 43.6937 60.9607C44.114 61.2623 44.657 61.356 45.1598 61.2137C45.6626 61.0714 46.0669 60.7097 46.2514 60.2369C49.5111 51.862 58.5203 46.9357 67.6494 48.5364C76.7785 50.1371 83.4113 57.8061 83.4032 66.7511C83.4065 68.5906 83.1225 70.42 82.5607 72.178C82.3853 72.7249 82.5247 73.3205 82.9267 73.7418C83.3288 74.1632 83.9328 74.3468 84.5128 74.2239C85.2443 74.0687 85.9911 73.99 86.7402 73.9891C92.269 73.9891 96.751 78.3098 96.751 83.6398C96.751 88.9697 92.269 93.2904 86.7402 93.2904Z" fill="#F9F1E7"/>
<path d="M64.5245 25.2532C65.0482 25.2551 65.5424 25.0198 65.8593 24.6178C67.9422 21.9 68.7472 18.4646 68.0783 15.1476C67.936 14.5804 67.4862 14.132 66.903 13.9759C66.3197 13.8198 65.6945 13.9805 65.2693 14.3957C64.844 14.811 64.6854 15.4157 64.8548 15.9759C65.2543 18.3329 64.6582 20.746 63.1997 22.6765C62.8205 23.1639 62.7596 23.8159 63.0422 24.3608C63.3248 24.9057 63.9025 25.2499 64.5345 25.2499L64.5245 25.2532Z" fill="#F9F1E7"/>
<path d="M62.3305 73.989C61.0898 73.9927 59.8661 74.2676 58.7516 74.7932C55.7501 70.8339 50.1458 69.6741 45.7231 72.0969C41.3004 74.5197 39.4657 79.7548 41.4579 84.2669C41.72 84.86 42.3242 85.2449 42.9929 85.2449C43.2177 85.2454 43.4403 85.2016 43.6469 85.1162C44.0541 84.949 44.3756 84.6327 44.5408 84.2369C44.706 83.8412 44.7014 83.3984 44.5279 83.0059C44.1647 82.1897 43.9773 81.3109 43.9773 80.4228C43.9773 76.8695 46.9653 73.989 50.6512 73.989C53.2398 73.9766 55.5976 75.4227 56.6827 77.6884C56.7188 77.7408 56.7578 77.7912 56.7995 77.8396C56.8258 77.8948 56.8554 77.9484 56.8879 78.0004C56.9179 78.0358 56.9613 78.0519 56.9947 78.0857C57.073 78.164 57.1597 78.2341 57.2533 78.2948C57.3367 78.3566 57.4261 78.4105 57.5203 78.4556C57.6172 78.4948 57.7177 78.525 57.8206 78.5457C57.9232 78.5717 58.0283 78.5873 58.1343 78.5923C58.351 78.5907 58.5661 78.5559 58.7716 78.4894C58.8161 78.4815 58.8601 78.4713 58.9034 78.4588C58.9576 78.4251 59.0094 78.388 59.0586 78.3479C59.1186 78.3221 59.1771 78.2931 59.2338 78.261C60.1102 77.5777 61.2033 77.2053 62.3305 77.2059C64.2813 77.2089 66.0526 78.3044 66.8687 80.0126C67.2511 80.821 68.2409 81.1774 69.0794 80.8088C69.918 80.4401 70.2877 79.486 69.9053 78.6776C68.5467 75.8229 65.5885 73.9918 62.3305 73.989Z" fill="#F9F1E7"/>
<path d="M29.485 62.8119C29.233 62.8907 23.3383 64.8562 23.3383 70.772C23.3383 71.6603 24.0853 72.3804 25.0068 72.3804C25.9283 72.3804 26.6753 71.6603 26.6753 70.772C26.8115 68.5282 28.3429 66.5872 30.5494 65.8615C31.4248 65.5781 31.8962 64.6643 31.6022 63.8204C31.3083 62.9765 30.3604 62.5221 29.485 62.8055V62.8119Z" fill="#F9F1E7"/>
<path d="M52.9653 61.0731C53.0979 61.1055 53.2341 61.1217 53.3708 61.1213C54.1355 61.1206 54.8017 60.6188 54.9875 59.9038C55.7555 56.9004 58.5136 54.7639 61.7215 54.6877C62.643 54.6855 63.3881 53.9636 63.3858 53.0753C63.3835 52.187 62.6346 51.4687 61.7131 51.471C56.9708 51.5317 52.8727 54.6795 51.7524 59.1221C51.5285 59.9837 52.0715 60.8572 52.9653 61.0731Z" fill="#F9F1E7"/>
</svg>
