<svg width="100" height="100" viewBox="0 0 100 100" fill="none" xmlns="http://www.w3.org/2000/svg">
<g clip-path="url(#clip0_37_30)">
<path d="M95.1762 53.229C94.3656 53.229 93.7084 53.8862 93.7084 54.6968V94.361C93.7084 95.8518 92.4955 97.0645 91.0047 97.0645H56.4402C54.9494 97.0645 53.7367 95.8517 53.7367 94.361V90.4601C53.7367 89.6495 53.0795 88.9923 52.2689 88.9923C51.4584 88.9923 50.8012 89.6495 50.8012 90.4601V94.361C50.8012 95.3401 51.0523 96.2614 51.4932 97.0645H6.78085C6.51113 97.0645 6.2916 96.845 6.2916 96.5753V61.1655C6.2916 60.355 5.63437 59.6978 4.82382 59.6978C4.01328 59.6978 3.35605 60.3548 3.35605 61.1655V96.5755C3.35605 98.4638 4.89238 100 6.78066 100H91.0045C94.1139 100 96.6435 97.4704 96.6435 94.361V54.6968C96.6437 53.8862 95.9867 53.229 95.1762 53.229Z" fill="#F9F1E7"/>
<path d="M91.0055 31.5199H76.8174V19.6551C76.8182 19.2695 76.6598 18.8891 76.3873 18.617L58.2004 0.430081C57.9283 0.15762 57.5479 -0.000778374 57.1623 2.87643e-06H6.78166C4.89338 2.87643e-06 3.35706 1.53633 3.35706 3.42461V55.2945C3.35706 56.1051 4.01428 56.7623 4.82483 56.7623C5.63538 56.7623 6.2926 56.1051 6.2926 55.2945V3.42461C6.2926 3.15489 6.51213 2.93535 6.78186 2.93535H55.6948V15.741C55.6948 18.7084 58.109 21.1227 61.0764 21.1227H73.882V31.5197H56.4412C53.3319 31.5197 50.8022 34.0494 50.8022 37.1588V37.3885H27.5444C26.7338 37.3885 26.0766 38.0455 26.0766 38.8563C26.0766 39.6668 26.7338 40.324 27.5444 40.324H50.8022V50.2936H27.5444C26.7338 50.2936 26.0766 50.9508 26.0766 51.7613C26.0766 52.5719 26.7338 53.2291 27.5444 53.2291H50.8022V63.1986H27.5444C26.7338 63.1986 26.0766 63.8559 26.0766 64.6664C26.0766 65.477 26.7338 66.1342 27.5444 66.1342H50.8022V76.1039H27.5444C26.7338 76.1039 26.0766 76.7609 26.0766 77.5717C26.0766 78.3824 26.7338 79.0395 27.5444 79.0395H50.8022V84.5895C50.8022 85.4 51.4592 86.0572 52.2699 86.0572C53.0807 86.0572 53.7377 85.4 53.7377 84.5895V37.1588C53.7377 35.668 54.9506 34.4553 56.4412 34.4553H91.0057C92.4965 34.4553 93.7094 35.6682 93.7094 37.1588V48.8258C93.7094 49.6363 94.3666 50.2936 95.1772 50.2936C95.9877 50.2936 96.6449 49.6365 96.6449 48.8258V37.1588C96.6445 34.0496 94.1149 31.5199 91.0055 31.5199ZM58.6301 15.741V5.01114L71.8063 18.1873H61.0762C59.7274 18.1873 58.6301 17.09 58.6301 15.741Z" fill="#F9F1E7"/>
<path d="M89.4598 41.7115C89.4598 39.8232 87.9235 38.2869 86.0352 38.2869H61.6656C59.7774 38.2869 58.241 39.8232 58.241 41.7115V49.9986C58.241 51.8869 59.7774 53.4232 61.6656 53.4232H86.0352C87.9235 53.4232 89.4598 51.8869 89.4598 49.9986V41.7115ZM86.5244 49.9984C86.5244 50.2681 86.3049 50.4877 86.0352 50.4877H61.6656C61.3959 50.4877 61.1764 50.2681 61.1764 49.9984V41.7113C61.1764 41.4416 61.3959 41.222 61.6656 41.222H86.0352C86.3049 41.222 86.5244 41.4416 86.5244 41.7113V49.9984Z" fill="#F9F1E7"/>
<path d="M58.241 65.4767C58.241 67.2835 59.7111 68.7537 61.518 68.7537H64.3127C66.1195 68.7537 67.5897 67.2835 67.5897 65.4767V62.682C67.5897 60.875 66.1195 59.405 64.3127 59.405H61.518C59.7111 59.405 58.241 60.8751 58.241 62.682V65.4767ZM61.1764 62.6822C61.1764 62.4939 61.3297 62.3406 61.518 62.3406H64.3127C64.501 62.3406 64.6543 62.4939 64.6543 62.6822V65.4769C64.6543 65.6652 64.501 65.8185 64.3127 65.8185H61.518C61.3297 65.8185 61.1764 65.6652 61.1764 65.4769V62.6822Z" fill="#F9F1E7"/>
<path d="M78.5248 62.6822C78.5248 60.8752 77.0547 59.4053 75.2478 59.4053H72.4531C70.6463 59.4053 69.1761 60.8754 69.1761 62.6822V65.477C69.1761 67.2838 70.6463 68.7539 72.4531 68.7539H75.2478C77.0547 68.7539 78.5248 67.2838 78.5248 65.477V62.6822ZM75.5892 65.4768C75.5892 65.665 75.4359 65.8184 75.2476 65.8184H72.4531C72.2648 65.8184 72.1115 65.665 72.1115 65.4768V62.682C72.1115 62.4937 72.2648 62.3404 72.4531 62.3404H75.2478C75.4361 62.3404 75.5894 62.4937 75.5894 62.682V65.4768H75.5892Z" fill="#F9F1E7"/>
<path d="M89.4598 62.6822C89.4598 60.8752 87.9897 59.4053 86.1828 59.4053H83.3881C81.5813 59.4053 80.1111 60.8754 80.1111 62.6822V65.477C80.1111 67.2838 81.5813 68.7539 83.3881 68.7539H86.1828C87.9897 68.7539 89.4598 67.2838 89.4598 65.477V62.6822ZM86.5244 65.4768C86.5244 65.665 86.3711 65.8184 86.1828 65.8184H83.3881C83.1998 65.8184 83.0465 65.665 83.0465 65.4768V62.682C83.0465 62.4937 83.1998 62.3404 83.3881 62.3404H86.1828C86.3711 62.3404 86.5244 62.4937 86.5244 62.682V65.4768Z" fill="#F9F1E7"/>
<path d="M58.241 77.4438C58.241 79.2506 59.7111 80.7207 61.518 80.7207H64.3127C66.1195 80.7207 67.5897 79.2506 67.5897 77.4438V74.649C67.5897 72.8422 66.1195 71.3721 64.3127 71.3721H61.518C59.7111 71.3721 58.241 72.842 58.241 74.649V77.4438ZM61.1764 74.649C61.1764 74.4607 61.3297 74.3074 61.518 74.3074H64.3127C64.501 74.3074 64.6543 74.4606 64.6543 74.649V77.4438C64.6543 77.632 64.501 77.7854 64.3127 77.7854H61.518C61.3297 77.7854 61.1764 77.632 61.1764 77.4438V74.649Z" fill="#F9F1E7"/>
<path d="M78.5248 74.649C78.5248 72.8422 77.0547 71.3721 75.2478 71.3721H72.4531C70.6463 71.3721 69.1761 72.842 69.1761 74.649V77.4438C69.1761 79.2506 70.6463 80.7207 72.4531 80.7207H75.2478C77.0547 80.7207 78.5248 79.2506 78.5248 77.4438V74.649ZM75.5892 77.4438C75.5892 77.632 75.4359 77.7854 75.2476 77.7854H72.4531C72.2648 77.7854 72.1115 77.632 72.1115 77.4438V74.649C72.1115 74.4607 72.2648 74.3074 72.4531 74.3074H75.2478C75.4361 74.3074 75.5894 74.4606 75.5894 74.649V77.4438H75.5892Z" fill="#F9F1E7"/>
<path d="M58.241 89.4105C58.241 91.2174 59.7111 92.6875 61.518 92.6875H64.3127C66.1195 92.6875 67.5897 91.2174 67.5897 89.4105V86.6158C67.5897 84.809 66.1195 83.3389 64.3127 83.3389H61.518C59.7111 83.3389 58.241 84.8088 58.241 86.6158V89.4105ZM61.1764 86.616C61.1764 86.4277 61.3297 86.2744 61.518 86.2744H64.3127C64.501 86.2744 64.6543 86.4275 64.6543 86.616V89.4107C64.6543 89.599 64.501 89.7523 64.3127 89.7523H61.518C61.3297 89.7523 61.1764 89.599 61.1764 89.4107V86.616Z" fill="#F9F1E7"/>
<path d="M75.2476 83.3391H72.4531C70.6463 83.3391 69.1761 84.809 69.1761 86.6161V89.4108C69.1761 91.2176 70.6463 92.6877 72.4531 92.6877H75.2478C77.0547 92.6877 78.5248 91.2176 78.5248 89.4108V86.6161C78.5248 84.809 77.0547 83.3391 75.2476 83.3391ZM75.5892 89.4106C75.5892 89.5989 75.4359 89.7522 75.2476 89.7522H72.4531C72.2648 89.7522 72.1115 89.5989 72.1115 89.4106V86.6159C72.1115 86.4276 72.2648 86.2743 72.4531 86.2743H75.2478C75.4361 86.2743 75.5894 86.4274 75.5894 86.6159V89.4106H75.5892Z" fill="#F9F1E7"/>
<path d="M85.9057 71.3721H83.6652C81.7055 71.3721 80.1111 72.9664 80.1111 74.9262V89.1336C80.1111 91.0934 81.7055 92.6877 83.6652 92.6877H85.9057C87.8654 92.6877 89.4598 91.0934 89.4598 89.1336V74.9262C89.4598 72.9664 87.8654 71.3721 85.9057 71.3721ZM86.5244 89.1336C86.5244 89.4748 86.2469 89.7523 85.9057 89.7523H83.6652C83.324 89.7523 83.0465 89.4748 83.0465 89.1336V74.9262C83.0465 74.585 83.324 74.3076 83.6652 74.3076H85.9057C86.2469 74.3076 86.5244 74.5852 86.5244 74.9262V89.1336Z" fill="#F9F1E7"/>
<path d="M15.0797 27.4189H20.9385C21.749 27.4189 22.4062 26.7619 22.4062 25.9512C22.4062 25.1406 21.7492 24.4834 20.9385 24.4834H15.0797C14.2691 24.4834 13.6119 25.1406 13.6119 25.9512C13.6119 26.7617 14.2691 27.4189 15.0797 27.4189Z" fill="#F9F1E7"/>
<path d="M27.5434 27.4189H55.7914C56.602 27.4189 57.2592 26.7619 57.2592 25.9512C57.2592 25.1406 56.602 24.4834 55.7914 24.4834H27.5434C26.7328 24.4834 26.0756 25.1406 26.0756 25.9512C26.0758 26.7617 26.7328 27.4189 27.5434 27.4189Z" fill="#F9F1E7"/>
<path d="M15.0797 40.3237H20.9385C21.749 40.3237 22.4062 39.6665 22.4062 38.856C22.4062 38.0454 21.7492 37.3882 20.9385 37.3882H15.0797C14.2691 37.3882 13.6119 38.0452 13.6119 38.856C13.6119 39.6667 14.2691 40.3237 15.0797 40.3237Z" fill="#F9F1E7"/>
<path d="M15.0797 53.229H20.9385C21.749 53.229 22.4062 52.5718 22.4062 51.7612C22.4062 50.9507 21.7492 50.2935 20.9385 50.2935H15.0797C14.2691 50.2935 13.6119 50.9507 13.6119 51.7612C13.6119 52.5718 14.2691 53.229 15.0797 53.229Z" fill="#F9F1E7"/>
<path d="M15.0797 66.134H20.9385C21.749 66.134 22.4062 65.4768 22.4062 64.6663C22.4062 63.8557 21.7492 63.1985 20.9385 63.1985H15.0797C14.2691 63.1985 13.6119 63.8557 13.6119 64.6663C13.6119 65.477 14.2691 66.134 15.0797 66.134Z" fill="#F9F1E7"/>
<path d="M15.0797 79.0391H20.9385C21.749 79.0391 22.4062 78.382 22.4062 77.5713C22.4062 76.7605 21.7492 76.1035 20.9385 76.1035H15.0797C14.2691 76.1035 13.6119 76.7605 13.6119 77.5713C13.6119 78.382 14.2691 79.0391 15.0797 79.0391Z" fill="#F9F1E7"/>
</g>
<defs>
<clipPath id="clip0_37_30">
<rect width="100" height="100" fill="white"/>
</clipPath>
</defs>
</svg>
