<svg width="100" height="100" viewBox="0 0 100 100" fill="none" xmlns="http://www.w3.org/2000/svg">
<g clip-path="url(#clip0_37_49)">
<path d="M67.9726 30.3025C66.8924 30.3025 66.0156 31.1753 66.0156 32.2549C66.0156 33.3337 66.8924 34.208 67.9726 34.208C69.055 34.208 69.9295 33.3337 69.9295 32.2549C69.9295 31.1753 69.055 30.3025 67.9726 30.3025Z" fill="#F9F1E7"/>
<path d="M32.4157 65.7891C31.3333 65.7891 30.4588 66.6642 30.4588 67.7422C30.4588 68.8225 31.3333 69.6953 32.4157 69.6953C33.4959 69.6953 34.3727 68.8225 34.3727 67.7422C34.3727 66.6642 33.4959 65.7891 32.4157 65.7891Z" fill="#F9F1E7"/>
<path d="M97.8588 12.0147C97.1984 11.8614 96.5042 12.0605 96.0272 12.5412L87.9143 20.7023H84.0249L79.7433 16.275V12.339L87.74 4.23887C88.2132 3.75974 88.4059 3.0708 88.2491 2.41544C88.0932 1.76084 87.6101 1.23288 86.971 1.01773C84.9621 0.341769 82.8599 -0.000791266 80.7218 -0.000791266C74.3479 -0.000791266 68.5574 2.96552 64.8346 8.13749C61.3503 12.9791 60.2763 18.9125 61.8151 24.5911L47.4002 38.9778L23.3847 14.9544V10.2394C23.3847 9.55351 23.0239 8.91721 22.4346 8.56474L8.59756 0.277682C7.82702 -0.183897 6.84166 -0.0625894 6.20718 0.571414L0.672693 6.09434C0.0382135 6.72834 -0.0833311 7.71177 0.378386 8.48081L8.68012 22.2908C9.03329 22.879 9.67006 23.2384 10.3573 23.2391L15.08 23.2406L39.0977 47.2641L24.7378 61.5959C19.0481 60.0609 13.1001 61.1343 8.24669 64.6141C3.06766 68.3273 0.0978394 74.1051 0.0978394 80.4665C0.0978394 82.5997 0.44107 84.6985 1.11836 86.7028C1.33469 87.3444 1.86903 87.8288 2.5295 87.9814C3.19073 88.1348 3.88407 87.9357 4.36184 87.455L12.474 79.2946H16.3848L20.8407 83.7418V87.645L12.6643 95.7413C12.1828 96.2181 11.9832 96.9101 12.1369 97.5701C12.2898 98.2292 12.7752 98.7625 13.4181 98.9785C15.4262 99.6544 17.5292 99.997 19.6665 99.997C26.0404 99.997 31.8287 97.0322 35.5499 91.8633C39.0365 87.0194 40.1121 81.0837 38.574 75.4051L50.107 63.8947L52.7489 66.7587L51.5365 67.968C50.7721 68.7309 50.7721 69.9677 51.5365 70.7306C52.3009 71.4928 53.5393 71.4928 54.3045 70.7306L55.4022 69.635L80.1897 96.5073C80.2081 96.5271 80.2272 96.5462 80.2463 96.5653C84.8329 101.143 92.2639 101.144 96.8528 96.5645C101.429 91.9953 101.429 84.5604 96.8528 79.9912C96.833 79.9713 96.8123 79.9523 96.7917 79.9332L69.8248 55.2414L70.9103 54.158C71.6747 53.3958 71.6747 52.1591 70.9103 51.3962C70.1459 50.6332 68.9075 50.6332 68.1423 51.3962L66.9383 52.5986L64.0633 49.9649L75.6521 38.3987C77.2994 38.8382 78.9995 39.061 80.7218 39.061C91.5125 39.061 100.29 30.2994 100.29 19.5305C100.29 17.3965 99.9473 15.2984 99.27 13.2934C99.0536 12.6518 98.5193 12.1673 97.8588 12.0147ZM17.2769 19.9081C16.91 19.5412 16.4124 19.3542 15.8925 19.3542L11.4665 19.3527L4.52085 7.77891L7.89429 4.41205L19.4709 11.3457V15.7631C19.4709 16.2803 19.6765 16.7763 20.0426 17.1425L44.6329 41.7404L41.8649 44.5023L17.2769 19.9081ZM67.0545 58.0063L94.1131 82.7812C97.1357 85.8299 97.1265 90.7662 94.0848 93.8034C91.0363 96.846 86.1011 96.8552 83.0403 93.8301L58.1718 66.8701L67.0545 58.0063ZM64.168 55.3627L55.5184 63.9938L52.8766 61.1298L61.293 52.729L64.168 55.3627ZM80.7218 35.1547C79.0102 35.1547 77.3269 34.8808 75.7201 34.3407C75.0161 34.1049 74.2379 34.2865 73.7119 34.8106C63.9012 44.6022 42.7616 65.6998 34.9774 73.4696C34.4514 73.9945 34.2687 74.7711 34.5065 75.4746C36.1332 80.2956 35.355 85.4378 32.3707 89.5844C29.3947 93.7188 24.7638 96.0907 19.6665 96.0907C19.094 96.0907 18.5245 96.0594 17.9603 95.9992L24.1759 89.8438C24.5459 89.4776 24.7546 88.9786 24.7546 88.4575V82.9323C24.7546 82.4143 24.5482 81.9176 24.1813 81.5514L18.5788 75.9598C18.2118 75.5936 17.7142 75.3876 17.1951 75.3876H11.6591C11.137 75.3876 10.6371 75.5959 10.2694 75.9651L4.1027 82.1686C4.04155 81.6056 4.01097 81.0372 4.01097 80.4657C4.01097 75.3777 6.38683 70.7565 10.5301 67.7864C14.684 64.8079 19.837 64.0305 24.6682 65.6548C25.3723 65.892 26.1505 65.7097 26.6764 65.1848C26.7842 65.078 65.3834 26.5533 65.411 26.5259C65.9369 26.001 66.1188 25.2251 65.8818 24.5216C64.2544 19.7006 65.031 14.5599 68.0131 10.4164C70.9913 6.2782 75.623 3.90546 80.721 3.90546C81.3111 3.90546 81.8975 3.93827 82.4784 4.00235L76.392 10.1677C76.0312 10.5331 75.8294 11.0252 75.8294 11.5379V17.0631C75.8294 17.5697 76.0259 18.0557 76.3783 18.4196L81.7851 24.0112C82.1536 24.3927 82.6619 24.6078 83.1932 24.6078H88.7292C89.2505 24.6078 89.7505 24.4003 90.1182 24.0303L96.2849 17.8276C96.346 18.3906 96.3766 18.959 96.3766 19.5305C96.3766 28.1456 89.3537 35.1547 80.7218 35.1547Z" fill="#F9F1E7"/>
<path d="M61.0544 36.3976L36.5659 60.8384C35.8022 61.6006 35.8022 62.8373 36.5659 63.6003C37.3303 64.3632 38.5694 64.3632 39.3339 63.6003L63.8225 39.1595C64.5869 38.3973 64.5869 37.1606 63.8225 36.3976C63.058 35.6347 61.8189 35.6347 61.0544 36.3976Z" fill="#F9F1E7"/>
<path d="M85.7839 88.2814C86.5483 89.0421 87.7874 89.0421 88.5519 88.2768C89.3148 87.5131 89.3125 86.2764 88.5473 85.515L70.908 67.9666C70.1428 67.2052 68.9029 67.2075 68.1408 67.9712C67.3771 68.7356 67.3794 69.9716 68.1446 70.733L85.7839 88.2814Z" fill="#F9F1E7"/>
</g>
<defs>
<clipPath id="clip0_37_49">
<rect width="100" height="100" fill="white"/>
</clipPath>
</defs>
</svg>
