<svg width="20" height="20" viewBox="0 0 20 20" fill="none" xmlns="http://www.w3.org/2000/svg">
<g clip-path="url(#clip0)">
<path d="M15.8063 12.3893C15.3968 11.963 14.903 11.735 14.3795 11.735C13.8603 11.735 13.3622 11.9587 12.9359 12.3851L11.602 13.7147C11.4923 13.6556 11.3825 13.6008 11.277 13.5459C11.125 13.4699 10.9815 13.3982 10.8591 13.3222C9.60966 12.5286 8.47417 11.4944 7.38512 10.1563C6.85748 9.48938 6.5029 8.92797 6.24541 8.35812C6.59154 8.04153 6.91235 7.71229 7.22471 7.3957C7.34291 7.27751 7.4611 7.1551 7.57929 7.0369C8.46573 6.15046 8.46573 5.00232 7.57929 4.11588L6.42692 2.96351C6.29606 2.83265 6.16099 2.69758 6.03435 2.5625C5.78109 2.30079 5.51515 2.03064 5.24078 1.77737C4.83133 1.37214 4.34168 1.15686 3.8267 1.15686C3.31172 1.15686 2.81363 1.37214 2.39151 1.77737C2.38729 1.78159 2.38729 1.78159 2.38307 1.78581L0.947883 3.23366C0.407577 3.77397 0.0994339 4.43246 0.0318957 5.19649C-0.0694116 6.42906 0.293606 7.57721 0.572201 8.32857C1.25603 10.1732 2.27754 11.8828 3.80137 13.7147C5.65023 15.9224 7.87477 17.6657 10.4159 18.8941C11.3868 19.3542 12.6826 19.8987 14.1305 19.9916C14.2191 19.9958 14.312 20 14.3964 20C15.3715 20 16.1904 19.6497 16.832 18.9532C16.8362 18.9447 16.8447 18.9405 16.8489 18.9321C17.0684 18.6661 17.3217 18.4255 17.5876 18.168C17.7691 17.995 17.9548 17.8135 18.1364 17.6235C18.5542 17.1887 18.7737 16.6822 18.7737 16.163C18.7737 15.6396 18.55 15.1373 18.1237 14.7152L15.8063 12.3893ZM17.3175 16.8342C17.3132 16.8342 17.3132 16.8384 17.3175 16.8342C17.1528 17.0114 16.984 17.1719 16.8025 17.3491C16.5281 17.6109 16.2495 17.8852 15.9878 18.1934C15.5615 18.6493 15.0591 18.8645 14.4006 18.8645C14.3373 18.8645 14.2698 18.8645 14.2065 18.8603C12.9528 18.7801 11.7878 18.2905 10.914 17.8726C8.52483 16.716 6.42692 15.0739 4.68359 12.9929C3.24418 11.258 2.28176 9.65401 1.64437 7.93179C1.2518 6.88072 1.10829 6.06182 1.1716 5.28935C1.21381 4.79548 1.40377 4.38603 1.75412 4.03568L3.19353 2.59627C3.40036 2.4021 3.61986 2.29657 3.83514 2.29657C4.10107 2.29657 4.31635 2.45697 4.45143 2.59205C4.45565 2.59627 4.45987 2.60049 4.46409 2.60471C4.72158 2.84532 4.96641 3.09436 5.2239 3.36029C5.35475 3.49537 5.48983 3.63045 5.6249 3.76974L6.77727 4.92211C7.22471 5.36955 7.22471 5.78323 6.77727 6.23067C6.65486 6.35308 6.53667 6.47549 6.41426 6.59368C6.05968 6.9567 5.72199 7.29439 5.35475 7.62364C5.34631 7.63208 5.33787 7.63631 5.33364 7.64475C4.97063 8.00777 5.03817 8.36234 5.11415 8.60295C5.11837 8.61561 5.12259 8.62827 5.12681 8.64094C5.42651 9.36697 5.84862 10.0508 6.49024 10.8655L6.49446 10.8697C7.65949 12.3049 8.88784 13.4235 10.2428 14.2804C10.4159 14.3901 10.5932 14.4788 10.762 14.5632C10.914 14.6392 11.0575 14.7109 11.1799 14.7869C11.1968 14.7954 11.2137 14.808 11.2306 14.8165C11.3741 14.8882 11.5092 14.922 11.6485 14.922C11.9988 14.922 12.2183 14.7025 12.2901 14.6307L13.7337 13.1871C13.8772 13.0436 14.1052 12.8705 14.3711 12.8705C14.6328 12.8705 14.8481 13.0351 14.9789 13.1787C14.9832 13.1829 14.9832 13.1829 14.9874 13.1871L17.3132 15.5129C17.748 15.9435 17.748 16.3867 17.3175 16.8342Z" fill="white"/>
<path d="M10.8084 4.75747C11.9144 4.9432 12.919 5.46662 13.721 6.26863C14.523 7.07065 15.0422 8.07528 15.2322 9.18122C15.2786 9.45981 15.5192 9.65398 15.7936 9.65398C15.8274 9.65398 15.8569 9.64976 15.8907 9.64554C16.203 9.59489 16.4099 9.29941 16.3592 8.98704C16.1313 7.64894 15.4981 6.42904 14.5315 5.4624C13.5648 4.49576 12.3449 3.86258 11.0068 3.63464C10.6944 3.58399 10.4032 3.79083 10.3483 4.09897C10.2934 4.40711 10.4961 4.70681 10.8084 4.75747Z" fill="white"/>
<path d="M19.9767 8.82242C19.6011 6.61899 18.5627 4.61395 16.9671 3.01836C15.3715 1.42277 13.3664 0.384369 11.163 0.00868772C10.8549 -0.0461871 10.5636 0.16487 10.5087 0.473013C10.4581 0.785377 10.6649 1.07664 10.9773 1.13151C12.9443 1.46498 14.7383 2.39785 16.165 3.82037C17.5918 5.24712 18.5204 7.0411 18.8539 9.00815C18.9003 9.28675 19.1409 9.48092 19.4153 9.48092C19.4491 9.48092 19.4786 9.4767 19.5124 9.47248C19.8206 9.42604 20.0316 9.13056 19.9767 8.82242Z" fill="white"/>
</g>
<defs>
<clipPath id="clip0">
<rect width="20" height="20" fill="white"/>
</clipPath>
</defs>
</svg>
