<svg width="70" height="70" viewBox="0 0 70 70" fill="none" xmlns="http://www.w3.org/2000/svg">
<path d="M66.7224 29.9269H59.9346V25.5955H66.7224C67.0745 25.5955 67.4019 25.4149 67.5898 25.1171C67.7775 24.8195 67.7995 24.4461 67.6479 24.1285C67.1564 23.0985 66.4721 22.1916 65.6142 21.433C65.1898 21.0579 64.5418 21.0977 64.1667 21.522C63.7917 21.9462 63.8315 22.5942 64.2557 22.9694C64.4603 23.1503 64.6518 23.3422 64.8298 23.5447H58.9091C58.3427 23.5447 57.8837 24.0038 57.8837 24.5701V30.9523C57.8837 31.5186 58.3427 31.9777 58.9091 31.9777H64.8261C63.6271 33.3357 61.8778 34.155 60.0227 34.155C58.275 34.155 56.6044 33.4354 55.4003 32.1752C55.0471 30.1968 53.2067 28.5783 51.1171 28.5914H48.5191V25.2281H53.5117C53.8863 25.2281 54.2311 25.0239 54.411 24.6953C55.5354 22.6426 57.6856 21.3675 60.0227 21.3675C60.1664 21.3675 60.3114 21.3723 60.4539 21.3817C61.0196 21.4193 61.5074 20.9915 61.5448 20.4264C61.5822 19.8614 61.1546 19.3729 60.5895 19.3354C60.4022 19.323 60.2113 19.3167 60.0227 19.3167C57.1438 19.3167 54.4799 20.7812 52.93 23.1773H48.5191V22.3981C48.5191 19.9211 46.5039 17.9059 44.027 17.9059C42.6327 17.9059 41.3848 18.5445 40.5602 19.5445C39.7356 18.5445 38.4877 17.9059 37.0934 17.9059C35.6992 17.9059 34.4512 18.5445 33.6266 19.5445C32.8021 18.5445 31.5541 17.9059 30.1599 17.9059C28.2619 17.9059 26.6364 19.0896 25.9794 20.757C25.2183 20.1648 24.2632 19.8107 23.2263 19.8107C21.1379 19.8107 19.3778 21.2433 18.877 23.1773H17.0695C16.9431 22.9823 16.8087 22.7923 16.6674 22.6089C16.3216 22.1603 15.6777 22.0772 15.2291 22.4229C14.7805 22.7687 14.6974 23.4126 15.0433 23.8611C15.246 24.124 15.4295 24.4048 15.5887 24.6953C15.7686 25.0239 16.1134 25.2281 16.488 25.2281H18.7341V30.2944H16.488C16.1134 30.2944 15.7686 30.4986 15.5887 30.8272C14.4643 32.8799 12.3141 34.155 9.97704 34.155C8.12204 34.155 6.37258 33.3357 5.17356 31.9777H11.0906C11.657 31.9777 12.116 31.5186 12.116 30.9523V24.5701C12.116 24.0038 11.657 23.5447 11.0906 23.5447H5.1737C6.37286 22.1867 8.1219 21.3675 9.97717 21.3675C10.4938 21.3675 11.0075 21.4291 11.5036 21.5505C12.0535 21.6855 12.6089 21.3485 12.7435 20.7984C12.8781 20.2484 12.5415 19.6933 11.9914 19.5587C11.3357 19.3982 10.658 19.3167 9.97717 19.3167C6.73981 19.3167 3.7469 21.2055 2.35223 24.1285C2.20061 24.4462 2.22262 24.8195 2.41047 25.1171C2.59819 25.4149 2.92563 25.5955 3.27768 25.5955H10.0655V29.9269H3.27754C2.92549 29.9269 2.59805 30.1075 2.41034 30.4053C2.22248 30.7029 2.20047 31.0763 2.35209 31.3939C3.74676 34.3169 6.73995 36.2058 9.97704 36.2058C12.8559 36.2058 15.5198 34.7413 17.0697 32.3452H18.7794C19.0874 34.5242 20.9638 36.2058 23.2263 36.2058C24.3448 36.2058 25.3683 35.794 26.1554 35.1152C26.8984 36.5737 28.414 37.5756 30.1599 37.5756C31.2625 37.5756 32.273 37.1756 33.0557 36.5139C33.7863 38.0078 35.3215 39.0395 37.0936 39.0395C38.6095 39.0395 39.9738 38.2931 40.7941 37.0957C41.5414 37.5533 43.0246 37.6195 44.018 37.5756L38.6738 41.0293C36.804 42.2376 35.6878 44.288 35.6878 46.5141C35.6878 47.0804 36.1468 47.5395 36.7132 47.5395C37.2796 47.5395 37.7386 47.0804 37.7386 46.5141C37.7386 44.987 38.5044 43.5804 39.7866 42.7516L48.0502 37.4113C48.4321 37.1645 48.6057 36.696 48.4772 36.26C48.3487 35.824 47.9483 35.5247 47.4938 35.5247H42.8103C41.4641 35.5247 40.3689 34.4294 40.3689 33.0833C40.381 31.8549 41.3677 30.6732 42.8103 30.6419H51.1171C52.162 30.6419 53.0724 31.3489 53.3311 32.3613L54.6171 37.3927C54.9091 38.5354 54.6328 39.7587 53.8782 40.6649L46.7058 49.277C44.8578 51.3645 42.882 53.9474 43.0014 56.9446V68.9746C43.0014 69.5409 43.4604 70 44.0268 70C44.5933 70 45.0522 69.5409 45.0522 68.9746V56.9448C44.9161 54.4459 46.8519 52.279 48.2877 50.5823L55.4539 41.9775C56.6286 40.5672 57.0585 38.6635 56.604 36.885L56.1955 35.2865C57.3692 35.8834 58.6786 36.2057 60.0225 36.2057C63.2598 36.2057 66.2528 34.3169 67.6475 31.3937C67.7991 31.076 67.7771 30.7028 67.5892 30.4051C67.4019 30.1075 67.0746 29.9269 66.7224 29.9269ZM23.2264 34.155C21.8802 34.155 20.7851 33.0598 20.7851 31.7137V24.3028C20.7851 22.9567 21.8803 21.8614 23.2264 21.8614C24.5726 21.8614 25.6677 22.9567 25.6677 24.3028V31.7137C25.6677 33.0598 24.5724 34.155 23.2264 34.155ZM30.16 35.5248C28.8137 35.5248 27.7186 34.4296 27.7186 33.0834V22.3979C27.7186 21.0518 28.8139 19.9565 30.16 19.9565C31.5061 19.9565 32.6014 21.0518 32.6014 22.3979V33.0834C32.6014 34.4297 31.5061 35.5248 30.16 35.5248ZM37.0936 36.9887C35.7473 36.9887 34.6522 35.8934 34.6522 34.5473V22.3979C34.6522 21.0518 35.7474 19.9565 37.0936 19.9565C38.4397 19.9565 39.5348 21.0518 39.5348 22.3979V30.0141C38.7812 30.8179 38.3183 31.8974 38.3183 33.0834C38.3183 34.0882 38.65 35.0169 39.2096 35.7661C38.7816 36.5134 37.9859 36.9887 37.0936 36.9887ZM41.5857 28.7624V22.3979C41.5857 21.0518 42.681 19.9565 44.0271 19.9565C45.3732 19.9565 46.4685 21.0518 46.4685 22.3979V28.5913H42.8105C42.3859 28.5913 41.9754 28.6518 41.5857 28.7624Z" fill="#F9F1E7"/>
<path d="M20.7849 47.1859V38.8499C20.7849 38.2836 20.3259 37.8245 19.7595 37.8245C19.1931 37.8245 18.7341 38.2836 18.7341 38.8499V47.1859C18.7341 49.1926 19.4314 51.1552 20.6973 52.7122C21.6669 53.9048 22.2009 55.4079 22.2009 56.9447V68.9746C22.2009 69.5409 22.6599 70 23.2263 70C23.7927 70 24.2517 69.5409 24.2517 68.9746V56.9449C24.2517 54.9381 23.5544 52.9755 22.2885 51.4185C21.3191 50.2259 20.7849 48.7229 20.7849 47.1859Z" fill="#F9F1E7"/>
<path d="M35 7.07697C35.5664 7.07697 36.0254 6.61787 36.0254 6.05158V1.02539C36.0254 0.459102 35.5664 0 35 0C34.4336 0 33.9746 0.459102 33.9746 1.02539V6.05158C33.9746 6.61787 34.4336 7.07697 35 7.07697Z" fill="#F9F1E7"/>
<path d="M41.6047 9.01193C41.776 9.12185 41.9676 9.17422 42.1571 9.17422C42.4948 9.17422 42.8255 9.00742 43.0213 8.70199L44.3488 6.63098C44.6544 6.15424 44.5156 5.52 44.0388 5.21444C43.5623 4.90873 42.9279 5.0475 42.6222 5.52438L41.2947 7.59539C40.9891 8.07213 41.1279 8.70637 41.6047 9.01193Z" fill="#F9F1E7"/>
<path d="M47.1339 14.9821C47.2724 14.9821 47.4129 14.9539 47.5476 14.8943L49.7979 13.9002C50.3159 13.6715 50.5504 13.066 50.3215 12.5479C50.0926 12.0298 49.4871 11.7953 48.9692 12.0243L46.719 13.0184C46.2009 13.2471 45.9664 13.8527 46.1953 14.3707C46.3647 14.754 46.7401 14.9821 47.1339 14.9821Z" fill="#F9F1E7"/>
<path d="M26.9787 8.70199C27.1746 9.00742 27.5053 9.17422 27.8429 9.17422C28.0324 9.17422 28.2239 9.12172 28.3952 9.01193C28.8719 8.70637 29.0108 8.07213 28.7053 7.59539L27.3777 5.52438C27.072 5.0475 26.4378 4.90901 25.9612 5.21444C25.4845 5.52 25.3456 6.15424 25.6511 6.63098L26.9787 8.70199Z" fill="#F9F1E7"/>
<path d="M20.2021 13.9003L22.4524 14.8944C22.587 14.954 22.7277 14.9821 22.8661 14.9821C23.2597 14.9821 23.6352 14.7541 23.8045 14.3707C24.0334 13.8527 23.7989 13.2473 23.2809 13.0184L21.0306 12.0244C20.5131 11.7958 19.9072 12.03 19.6783 12.548C19.4496 13.066 19.6841 13.6715 20.2021 13.9003Z" fill="#F9F1E7"/>
</svg>
