<svg width="40" height="40" viewBox="0 0 40 40" fill="none" xmlns="http://www.w3.org/2000/svg">
<g clip-path="url(#clip0_105_119)">
<path d="M38.2228 26.2251C37.3527 25.1824 36.3697 24.2513 35.419 23.3509C35.085 23.0345 34.7393 22.7072 34.4065 22.3823C34.4064 22.3822 34.4064 22.3821 34.4063 22.382C33.9586 21.9454 33.7395 21.6355 33.7166 21.4066C33.6941 21.1816 33.8478 20.8477 34.2015 20.3543C34.7303 19.6121 35.294 18.8687 35.8393 18.1497C36.324 17.5107 36.8251 16.8498 37.3054 16.1852L37.4132 16.036C38.3504 14.739 39.3193 13.3978 39.8385 11.7634C39.9868 11.2948 40.1408 10.6014 39.7693 9.9926C39.3978 9.3837 38.709 9.20323 38.2235 9.12057C37.9864 9.07994 37.7614 9.07658 37.552 9.07658L31.4734 9.07119C30.4224 9.05369 29.6934 9.55182 29.296 10.5521C28.9781 11.351 28.6025 12.2769 28.1674 13.1552C27.335 14.8507 26.2773 16.8036 24.7441 18.4308L24.676 18.5033C24.5716 18.6147 24.4011 18.7969 24.3135 18.8387C24.1474 18.7343 23.9558 18.1373 23.9645 17.8246C23.9648 17.8169 23.9648 17.8092 23.9648 17.8015L23.9594 10.7778C23.9594 10.7421 23.9569 10.7064 23.9522 10.671C23.8159 9.66901 23.5501 8.66447 21.9641 8.3515C21.9133 8.34143 21.8615 8.33643 21.8098 8.33643H15.4868C14.2971 8.33643 13.6679 8.88119 13.1635 9.47182C13.0175 9.64401 12.6295 10.1012 12.8271 10.6601C13.0271 11.2257 13.6231 11.3385 13.8187 11.3756C14.5078 11.5064 14.8641 11.8958 14.9744 12.6403C15.1925 14.087 15.2192 15.6346 15.0586 17.5083C15.0139 18.0113 14.9306 18.3937 14.7962 18.7116C14.759 18.7997 14.7264 18.8542 14.7036 18.8863C14.6671 18.8716 14.6105 18.8435 14.5321 18.7898C14.0478 18.4585 13.6829 17.9434 13.33 17.4454C11.9205 15.4554 10.7349 13.2574 9.70494 10.725C9.2808 9.68721 8.48345 9.1076 7.46126 9.0926C5.51376 9.06018 3.71258 9.06096 1.95664 9.0951C1.12843 9.10948 0.547646 9.37018 0.230145 9.8701C-0.0877466 10.371 -0.076106 11.0096 0.264833 11.7685C2.70203 17.188 4.91501 21.1305 7.44001 24.552C9.21791 26.9607 11.0076 28.6328 13.0722 29.814C15.2414 31.055 17.6879 31.6632 20.526 31.6632C20.8487 31.6632 21.1771 31.6553 21.5098 31.6394C23.2609 31.5596 23.9733 30.8632 24.051 29.1578C24.0946 28.2564 24.1949 27.5263 24.543 26.8919C24.6403 26.7143 24.7502 26.5952 24.8367 26.5735C24.9287 26.5505 25.0919 26.6068 25.2734 26.7247C25.6052 26.9402 25.8909 27.2324 26.1259 27.4888C26.364 27.7495 26.6046 28.0188 26.8375 28.2792C27.3331 28.8337 27.8455 29.4071 28.3824 29.9539C29.5967 31.1917 30.9965 31.7594 32.5447 31.6405L38.1076 31.6431C38.1078 31.6431 38.1079 31.6431 38.1079 31.6431C38.1256 31.6431 38.1432 31.6425 38.1609 31.6414C38.8025 31.5986 39.3573 31.2434 39.6831 30.6665C40.0754 29.9718 40.0694 29.0919 39.6669 28.3118C39.2469 27.5008 38.702 26.8027 38.2228 26.2251ZM38.2955 29.883C38.2188 30.0189 38.1242 30.0436 38.0754 30.0496L32.5136 30.047C32.5135 30.047 32.5133 30.047 32.5131 30.047C32.4911 30.047 32.4692 30.0478 32.4474 30.0497C31.3517 30.141 30.4203 29.7558 29.5197 28.8378C29.0088 28.3174 28.509 27.7582 28.0256 27.2174C27.7901 26.9539 27.5466 26.6813 27.3019 26.4135C26.9984 26.0821 26.6234 25.7013 26.1414 25.3883C25.4198 24.9199 24.8219 24.9341 24.4474 25.0284C24.0769 25.1218 23.5501 25.3882 23.1458 26.126C22.6221 27.0806 22.5065 28.1105 22.4595 29.0834C22.4323 29.6784 22.3317 29.8356 22.2897 29.8755C22.2346 29.9278 22.0505 30.0199 21.4364 30.0479C18.4851 30.1867 16.0084 29.6581 13.8636 28.431C11.9978 27.3635 10.3641 25.8302 8.72228 23.6059C6.2672 20.2794 4.10703 16.4272 1.71835 11.1154C1.63179 10.923 1.60507 10.8029 1.59734 10.7386C1.65827 10.7186 1.77734 10.6923 1.98609 10.6885C3.72422 10.6548 5.50657 10.6539 7.4365 10.686C7.70072 10.69 8.00158 10.7692 8.22939 11.3267C9.30549 13.9727 10.5485 16.2754 12.0298 18.3667C12.4231 18.9218 12.9126 19.6127 13.6321 20.105C14.2911 20.5562 14.8258 20.5347 15.1585 20.4372C15.4913 20.3396 15.9532 20.0685 16.2643 19.3319C16.465 18.8572 16.5863 18.3226 16.6464 17.6471C16.818 15.6429 16.7875 13.9767 16.5507 12.405C16.3837 11.279 15.8023 10.4656 14.8864 10.0502C15.0491 9.96549 15.2324 9.93018 15.4869 9.93018H21.7273C22.0784 10.0089 22.148 10.1014 22.1718 10.1331C22.2729 10.2675 22.3307 10.5856 22.366 10.8341L22.3713 17.793C22.3573 18.4601 22.6815 19.9397 23.7854 20.3454C23.7944 20.3487 23.8036 20.3519 23.8127 20.3548C24.8177 20.6833 25.4825 19.9738 25.8394 19.5926L25.903 19.525C27.5823 17.7426 28.7132 15.6599 29.5967 13.8603C30.0572 12.931 30.4472 11.9697 30.777 11.1411C30.942 10.7256 31.0921 10.6571 31.4504 10.6647C31.4553 10.6649 31.4602 10.6649 31.4652 10.6649L37.5515 10.6703C37.6931 10.6703 37.8408 10.6719 37.9554 10.6915C38.2454 10.7409 38.3649 10.801 38.4043 10.826C38.4083 10.8721 38.4074 11.005 38.3197 11.2821C37.8782 12.6719 37.025 13.8527 36.1218 15.1029L36.0139 15.2523C35.5446 15.9017 35.0491 16.5551 34.57 17.187C34.0176 17.9152 33.4467 18.6681 32.9053 19.428C31.748 21.0427 31.8497 22.1143 33.294 23.523C33.6353 23.8563 33.9852 24.1877 34.3236 24.5081C35.2831 25.417 36.1894 26.2753 36.9982 27.2445C37.4217 27.755 37.9017 28.3681 38.2515 29.0437C38.434 29.3974 38.3893 29.7169 38.2955 29.883Z" fill="black"/>
<path d="M5.8111 13.2528C5.69407 13.0213 5.57806 12.7891 5.46313 12.5564C5.26813 12.162 4.79063 11.9999 4.39586 12.1949C4.00133 12.3898 3.83946 12.8677 4.03438 13.2622C4.15149 13.4992 4.26969 13.7358 4.38883 13.9716C4.52907 14.2491 4.80962 14.4091 5.10055 14.4091C5.22134 14.4091 5.34407 14.3816 5.4593 14.3234C5.8522 14.1248 6.00962 13.6456 5.8111 13.2528Z" fill="black"/>
<path d="M10.8089 21.519C9.50229 19.7488 8.27994 17.826 7.07212 15.6409C6.85923 15.2558 6.37439 15.1162 5.98931 15.3291C5.60423 15.5419 5.46454 16.0268 5.67743 16.4119C6.91931 18.6584 8.17846 20.6386 9.52674 22.4654C9.68299 22.6771 9.92416 22.7891 10.1685 22.7891C10.3328 22.7891 10.4986 22.7385 10.641 22.6332C10.9949 22.372 11.0701 21.8731 10.8089 21.519Z" fill="black"/>
</g>
<defs>
<clipPath id="clip0_105_119">
<rect width="40" height="40" fill="white"/>
</clipPath>
</defs>
</svg>
