<svg width="24" height="24" viewBox="0 0 24 24" fill="none" xmlns="http://www.w3.org/2000/svg">
<path d="M22.1418 0H1.85229C1.65765 0 1.5 0.157654 1.5 0.352295V23.6477C1.5 23.8423 1.65765 24 1.85229 24H2.97949C3.17395 24 3.33179 23.8423 3.33179 23.6477V22.8728H20.6624V23.6477C20.6624 23.8423 20.8202 24 21.0146 24H22.1418C22.3365 24 22.4941 23.8423 22.4941 23.6477V0.352295C22.4941 0.157654 22.3365 0 22.1418 0ZM21.7896 22.1682H12.3494V21.7456H21.0146C21.2093 21.7456 21.3669 21.588 21.3669 21.3933V12.1879C21.3669 11.9932 21.2093 11.8356 21.0146 11.8356C20.8202 11.8356 20.6624 11.9932 20.6624 12.1879V13.5264H12.3494V11.6008H19.136C19.3306 11.6008 19.4883 11.4432 19.4883 11.2485V7.35388L20.6624 6.88422V10.4971C20.6624 10.6917 20.8202 10.8494 21.0146 10.8494C21.2093 10.8494 21.3669 10.6917 21.3669 10.4971V1.47949C21.3669 1.28485 21.2093 1.1272 21.0146 1.1272H12.3494V0.70459H21.7896V22.1682ZM15.7778 1.83179V3.00586H14.228V1.83179H15.7778ZM20.6624 1.83179V5.13574L19.4346 3.17139C19.3711 3.06976 19.2559 3.00586 19.136 3.00586H16.4824V1.83179H20.6624ZM19.4883 4.58643L20.4926 6.19336L19.4883 6.59509V4.58643ZM12.3494 10.8962V3.71045H12.4387C12.5971 4.35663 13.1812 4.83765 13.8757 4.83765C14.5703 4.83765 15.1544 4.35663 15.3127 3.71045H16.5293V10.8962H12.3494ZM12.3494 17.9883H20.6624V21.041H12.3494V17.9883ZM20.6624 17.2837H12.3494V14.231H20.6624V17.2837ZM13.8757 3.71045H14.5651C14.4366 3.96094 14.1762 4.13306 13.8757 4.13306C13.5753 4.13306 13.3149 3.96094 13.1863 3.71045H13.8757ZM18.7837 5.73706L17.5172 3.71045H18.7837V5.73706ZM17.2339 4.58643L18.2382 6.19336L17.2339 6.59509V4.58643ZM17.2339 7.35388L18.7837 6.73407V10.8962H17.2339V7.35388ZM13.5234 3.00586H12.3494V1.83179H13.5234V3.00586ZM2.6272 23.2954H2.20459V22.8728H2.6272V23.2954ZM2.20459 22.1682V0.70459H11.6448V22.1682H2.20459ZM21.7896 23.2954H21.3669V22.8728H21.7896V23.2954Z" fill="#FAFAFA"/>
<path d="M17.2573 19.1624H15.7544C15.5599 19.1624 15.4021 19.32 15.4021 19.5146C15.4021 19.7093 15.5599 19.8669 15.7544 19.8669H17.2573C17.452 19.8669 17.6096 19.7093 17.6096 19.5146C17.6096 19.32 17.452 19.1624 17.2573 19.1624Z" fill="#FAFAFA"/>
<path d="M15.7544 15.7339H17.2573C17.452 15.7339 17.6096 15.5762 17.6096 15.3816C17.6096 15.187 17.452 15.0293 17.2573 15.0293H15.7544C15.5599 15.0293 15.4021 15.187 15.4021 15.3816C15.4021 15.5762 15.5599 15.7339 15.7544 15.7339Z" fill="#FAFAFA"/>
<path d="M9.74268 1.1272H2.97949C2.78485 1.1272 2.6272 1.28485 2.6272 1.47949V21.3933C2.6272 21.588 2.78485 21.7456 2.97949 21.7456H9.74268C9.93713 21.7456 10.095 21.588 10.095 21.3933V1.47949C10.095 1.28485 9.93713 1.1272 9.74268 1.1272ZM9.39038 21.041H3.33179V1.83179H9.39038V21.041Z" fill="#FAFAFA"/>
<path d="M10.8699 10.1448C10.6754 10.1448 10.5176 10.3024 10.5176 10.4971V12.7515C10.5176 12.9461 10.6754 13.1038 10.8699 13.1038C11.0643 13.1038 11.2222 12.9461 11.2222 12.7515V10.4971C11.2222 10.3024 11.0643 10.1448 10.8699 10.1448Z" fill="#FAFAFA"/>
</svg>
